<?xml version="1.0" encoding="utf-8"?>
<!-- Generator: Adobe Illustrator 19.2.0, SVG Export Plug-In . SVG Version: 6.00 Build 0)  -->
<svg version="1.1" xmlns="http://www.w3.org/2000/svg" xmlns:xlink="http://www.w3.org/1999/xlink" x="0px" y="0px"
	 viewBox="0 0 6000 4690.9" style="enable-background:new 0 0 6000 4690.9;" xml:space="preserve">
<style type="text/css">
	.st0{fill:#F6851F;}
	.st1{fill:#FFFFFF;}
	.st2{fill:url(#SVGID_1_);}
	.st3{fill:url(#SVGID_2_);}
	.st4{fill:#FFC627;}
	.st5{opacity:0.27;}
	.st6{opacity:0.23;fill:#414042;}
	.st7{fill:#171617;}
</style>
<g id="background">
	<rect x="0" y="8.8" width="6000" height="4682.1"/>
</g>
<g id="Layer_4">
	<rect x="472.3" y="382" class="st0" width="5037" height="3896.6"/>
	
		<rect x="446.8" y="4253" transform="matrix(0.7071 0.7071 -0.7071 0.7071 3163.7278 919.1611)" class="st1" width="51.1" height="51.1"/>
	
		<rect x="517.5" y="4253" transform="matrix(0.7071 0.7071 -0.7071 0.7071 3184.4468 869.141)" class="st1" width="51.1" height="51.1"/>
	
		<rect x="446.8" y="4182.2" transform="matrix(0.7071 -0.7071 0.7071 0.7071 -2837.0183 1566.4293)" class="st1" width="51.1" height="51.1"/>
	
		<rect x="446.8" y="4112.8" transform="matrix(0.7071 -0.7071 0.7071 0.7071 -2787.9165 1546.0907)" class="st1" width="51.1" height="51.1"/>
	
		<rect x="446.8" y="4040.5" transform="matrix(0.7071 -0.7071 0.7071 0.7071 -2736.7781 1524.9084)" class="st1" width="51.1" height="51.1"/>
	
		<rect x="446.8" y="3972.6" transform="matrix(0.7071 -0.7071 0.7071 0.7071 -2688.7949 1505.0332)" class="st1" width="51.1" height="51.1"/>
	
		<rect x="446.8" y="3898.7" transform="matrix(0.7071 -0.7071 0.7071 0.7071 -2636.5381 1483.3877)" class="st1" width="51.1" height="51.1"/>
	
		<rect x="446.8" y="3828" transform="matrix(0.7071 -0.7071 0.7071 0.7071 -2586.5178 1462.6687)" class="st1" width="51.1" height="51.1"/>
	
		<rect x="446.8" y="3758.5" transform="matrix(0.7071 -0.7071 0.7071 0.7071 -2537.4163 1442.3301)" class="st1" width="51.1" height="51.1"/>
	
		<rect x="446.8" y="3686.2" transform="matrix(0.7071 -0.7071 0.7071 0.7071 -2486.2778 1421.1478)" class="st1" width="51.1" height="51.1"/>
	
		<rect x="446.8" y="3618.3" transform="matrix(0.7071 -0.7071 0.7071 0.7071 -2438.2947 1401.2726)" class="st1" width="51.1" height="51.1"/>
	
		<rect x="446.8" y="3544.4" transform="matrix(0.7071 -0.7071 0.7071 0.7071 -2386.0376 1379.6271)" class="st1" width="51.1" height="51.1"/>
	
		<rect x="446.8" y="3472.4" transform="matrix(0.7071 -0.7071 0.7071 0.7071 -2335.0991 1358.5276)" class="st1" width="51.1" height="51.1"/>
	
		<rect x="446.8" y="3403" transform="matrix(0.7071 -0.7071 0.7071 0.7071 -2285.9976 1338.1891)" class="st1" width="51.1" height="51.1"/>
	
		<rect x="446.8" y="3330.6" transform="matrix(0.7071 -0.7071 0.7071 0.7071 -2234.8591 1317.0068)" class="st1" width="51.1" height="51.1"/>
	
		<rect x="446.8" y="3262.8" transform="matrix(0.7071 -0.7071 0.7071 0.7071 -2186.8757 1297.1315)" class="st1" width="51.1" height="51.1"/>
	
		<rect x="446.8" y="3188.9" transform="matrix(0.7071 -0.7071 0.7071 0.7071 -2134.6189 1275.486)" class="st1" width="51.1" height="51.1"/>
	
		<rect x="446.8" y="3118.1" transform="matrix(0.7071 -0.7071 0.7071 0.7071 -2084.5989 1254.767)" class="st1" width="51.1" height="51.1"/>
	
		<rect x="446.8" y="3048.7" transform="matrix(0.7071 -0.7071 0.7071 0.7071 -2035.4972 1234.4285)" class="st1" width="51.1" height="51.1"/>
	
		<rect x="446.8" y="2976.4" transform="matrix(0.7071 -0.7071 0.7071 0.7071 -1984.3588 1213.2462)" class="st1" width="51.1" height="51.1"/>
	
		<rect x="446.8" y="2908.5" transform="matrix(0.7071 -0.7071 0.7071 0.7071 -1936.3756 1193.3708)" class="st1" width="51.1" height="51.1"/>
	
		<rect x="446.8" y="2834.6" transform="matrix(0.7071 -0.7071 0.7071 0.7071 -1884.1187 1171.7253)" class="st1" width="51.1" height="51.1"/>
	
		<rect x="446.8" y="2763.9" transform="matrix(0.7071 -0.7071 0.7071 0.7071 -1834.0985 1151.0063)" class="st1" width="51.1" height="51.1"/>
	
		<rect x="446.8" y="2694.4" transform="matrix(0.7071 -0.7071 0.7071 0.7071 -1784.9969 1130.6678)" class="st1" width="51.1" height="51.1"/>
	
		<rect x="446.8" y="2622.1" transform="matrix(0.7071 -0.7071 0.7071 0.7071 -1733.8584 1109.4856)" class="st1" width="51.1" height="51.1"/>
	
		<rect x="446.8" y="2554.3" transform="matrix(0.7071 -0.7071 0.7071 0.7071 -1685.8752 1089.6102)" class="st1" width="51.1" height="51.1"/>
	
		<rect x="446.8" y="2480.4" transform="matrix(0.7071 -0.7071 0.7071 0.7071 -1633.6183 1067.9647)" class="st1" width="51.1" height="51.1"/>
	
		<rect x="446.8" y="2409.6" transform="matrix(0.7071 -0.7071 0.7071 0.7071 -1583.5983 1047.2457)" class="st1" width="51.1" height="51.1"/>
	
		<rect x="446.8" y="2340.2" transform="matrix(0.7071 -0.7071 0.7071 0.7071 -1534.4966 1026.9072)" class="st1" width="51.1" height="51.1"/>
	
		<rect x="446.8" y="2267.9" transform="matrix(0.7071 -0.7071 0.7071 0.7071 -1483.3582 1005.7249)" class="st1" width="51.1" height="51.1"/>
	
		<rect x="446.8" y="2200" transform="matrix(0.7071 -0.7071 0.7071 0.7071 -1435.375 985.8496)" class="st1" width="51.1" height="51.1"/>
	
		<rect x="446.8" y="2126.1" transform="matrix(0.7071 -0.7071 0.7071 0.7071 -1383.118 964.2041)" class="st1" width="51.1" height="51.1"/>
	
		<rect x="446.8" y="2054.1" transform="matrix(0.7071 -0.7071 0.7071 0.7071 -1332.1794 943.1047)" class="st1" width="51.1" height="51.1"/>
	
		<rect x="446.8" y="1984.6" transform="matrix(0.7071 -0.7071 0.7071 0.7071 -1283.0779 922.7661)" class="st1" width="51.1" height="51.1"/>
	
		<rect x="446.8" y="1912.3" transform="matrix(0.7071 -0.7071 0.7071 0.7071 -1231.9393 901.5839)" class="st1" width="51.1" height="51.1"/>
	
		<rect x="446.8" y="1844.4" transform="matrix(0.7071 -0.7071 0.7071 0.7071 -1183.9562 881.7086)" class="st1" width="51.1" height="51.1"/>
	
		<rect x="446.8" y="1770.5" transform="matrix(0.7071 -0.7071 0.7071 0.7071 -1131.6992 860.063)" class="st1" width="51.1" height="51.1"/>
	
		<rect x="446.8" y="1699.8" transform="matrix(0.7071 -0.7071 0.7071 0.7071 -1081.6792 839.3441)" class="st1" width="51.1" height="51.1"/>
	
		<rect x="446.8" y="1630.4" transform="matrix(0.7071 -0.7071 0.7071 0.7071 -1032.5775 819.0055)" class="st1" width="51.1" height="51.1"/>
	
		<rect x="446.8" y="1558" transform="matrix(0.7071 -0.7071 0.7071 0.7071 -981.4391 797.8232)" class="st1" width="51.1" height="51.1"/>
	
		<rect x="446.8" y="1490.2" transform="matrix(0.7071 -0.7071 0.7071 0.7071 -933.4559 777.9479)" class="st1" width="51.1" height="51.1"/>
	
		<rect x="446.8" y="1416.3" transform="matrix(0.7071 -0.7071 0.7071 0.7071 -881.199 756.3024)" class="st1" width="51.1" height="51.1"/>
	
		<rect x="446.8" y="1346.8" transform="matrix(0.7071 -0.7071 0.7071 0.7071 -832.0974 735.9639)" class="st1" width="51.1" height="51.1"/>
	
		<rect x="446.8" y="1274.5" transform="matrix(0.7071 -0.7071 0.7071 0.7071 -780.9589 714.7816)" class="st1" width="51.1" height="51.1"/>
	
		<rect x="446.8" y="1206.7" transform="matrix(0.7071 -0.7071 0.7071 0.7071 -732.9756 694.9063)" class="st1" width="51.1" height="51.1"/>
	
		<rect x="446.8" y="1132.8" transform="matrix(0.7071 -0.7071 0.7071 0.7071 -680.7188 673.2608)" class="st1" width="51.1" height="51.1"/>
	
		<rect x="446.8" y="1062" transform="matrix(0.7071 -0.7071 0.7071 0.7071 -630.6987 652.5418)" class="st1" width="51.1" height="51.1"/>
	
		<rect x="446.8" y="992.6" transform="matrix(0.7071 -0.7071 0.7071 0.7071 -581.597 632.2032)" class="st1" width="51.1" height="51.1"/>
	
		<rect x="446.8" y="920.3" transform="matrix(0.7071 -0.7071 0.7071 0.7071 -530.4586 611.021)" class="st1" width="51.1" height="51.1"/>
	
		<rect x="446.8" y="852.4" transform="matrix(0.7071 -0.7071 0.7071 0.7071 -482.4753 591.1457)" class="st1" width="51.1" height="51.1"/>
	
		<rect x="446.8" y="778.5" transform="matrix(0.7071 -0.7071 0.7071 0.7071 -430.2184 569.5002)" class="st1" width="51.1" height="51.1"/>
	
		<rect x="446.8" y="706.5" transform="matrix(0.7071 -0.7071 0.7071 0.7071 -379.2799 548.4008)" class="st1" width="51.1" height="51.1"/>
	
		<rect x="446.8" y="637" transform="matrix(0.7071 -0.7071 0.7071 0.7071 -330.1783 528.0622)" class="st1" width="51.1" height="51.1"/>
	
		<rect x="446.8" y="564.7" transform="matrix(0.7071 -0.7071 0.7071 0.7071 -279.0398 506.8799)" class="st1" width="51.1" height="51.1"/>
	
		<rect x="446.8" y="496.8" transform="matrix(0.7071 -0.7071 0.7071 0.7071 -231.0566 487.0046)" class="st1" width="51.1" height="51.1"/>
	
		<rect x="446.8" y="422.9" transform="matrix(0.7071 -0.7071 0.7071 0.7071 -178.7997 465.3591)" class="st1" width="51.1" height="51.1"/>
	
		<rect x="446.8" y="352.2" transform="matrix(0.7071 -0.7071 0.7071 0.7071 -128.7796 444.6401)" class="st1" width="51.1" height="51.1"/>
	
		<rect x="586.9" y="4253" transform="matrix(0.7071 0.7071 -0.7071 0.7071 3204.7852 820.0394)" class="st1" width="51.1" height="51.1"/>
	
		<rect x="659.3" y="4253" transform="matrix(0.7071 0.7071 -0.7071 0.7071 3225.9675 768.9009)" class="st1" width="51.1" height="51.1"/>
	
		<rect x="727.1" y="4253" transform="matrix(0.7071 0.7071 -0.7071 0.7071 3245.8428 720.9177)" class="st1" width="51.1" height="51.1"/>
	
		<rect x="801" y="4253" transform="matrix(0.7071 0.7071 -0.7071 0.7071 3267.4883 668.6608)" class="st1" width="51.1" height="51.1"/>
	
		<rect x="871.8" y="4253" transform="matrix(0.7071 0.7071 -0.7071 0.7071 3288.2073 618.6407)" class="st1" width="51.1" height="51.1"/>
	
		<rect x="941.2" y="4253" transform="matrix(0.7071 0.7071 -0.7071 0.7071 3308.5459 569.5391)" class="st1" width="51.1" height="51.1"/>
	
		<rect x="1013.5" y="4253" transform="matrix(0.7071 0.7071 -0.7071 0.7071 3329.728 518.4006)" class="st1" width="51.1" height="51.1"/>
	
		<rect x="1081.4" y="4253" transform="matrix(0.7071 0.7071 -0.7071 0.7071 3349.6035 470.4174)" class="st1" width="51.1" height="51.1"/>
	
		<rect x="1155.3" y="4253" transform="matrix(0.7071 0.7071 -0.7071 0.7071 3371.249 418.1605)" class="st1" width="51.1" height="51.1"/>
	
		<rect x="1227.3" y="4253" transform="matrix(0.7071 0.7071 -0.7071 0.7071 3392.3484 367.2219)" class="st1" width="51.1" height="51.1"/>
	
		<rect x="1296.8" y="4253" transform="matrix(0.7071 0.7071 -0.7071 0.7071 3412.687 318.1203)" class="st1" width="51.1" height="51.1"/>
	
		<rect x="1369.1" y="4253" transform="matrix(0.7071 0.7071 -0.7071 0.7071 3433.8691 266.9818)" class="st1" width="51.1" height="51.1"/>
	
		<rect x="1436.9" y="4253" transform="matrix(0.7071 0.7071 -0.7071 0.7071 3453.7444 218.9986)" class="st1" width="51.1" height="51.1"/>
	
		<rect x="1510.9" y="4253" transform="matrix(0.7071 0.7071 -0.7071 0.7071 3475.3899 166.7417)" class="st1" width="51.1" height="51.1"/>
	
		<rect x="1581.6" y="4253" transform="matrix(0.7071 0.7071 -0.7071 0.7071 3496.1089 116.7216)" class="st1" width="51.1" height="51.1"/>
	
		<rect x="1651" y="4253" transform="matrix(0.7071 0.7071 -0.7071 0.7071 3516.4475 67.62)" class="st1" width="51.1" height="51.1"/>
	
		<rect x="1723.4" y="4253" transform="matrix(0.7071 0.7071 -0.7071 0.7071 3537.6299 16.4815)" class="st1" width="51.1" height="51.1"/>
	
		<rect x="1791.2" y="4253" transform="matrix(0.7071 0.7071 -0.7071 0.7071 3557.5051 -31.5017)" class="st1" width="51.1" height="51.1"/>
	
		<rect x="1865.1" y="4253" transform="matrix(0.7071 0.7071 -0.7071 0.7071 3579.1506 -83.7586)" class="st1" width="51.1" height="51.1"/>
	
		<rect x="1935.9" y="4253" transform="matrix(0.7071 0.7071 -0.7071 0.7071 3599.8696 -133.7787)" class="st1" width="51.1" height="51.1"/>
	
		<rect x="2005.3" y="4253" transform="matrix(0.7071 0.7071 -0.7071 0.7071 3620.2083 -182.8803)" class="st1" width="51.1" height="51.1"/>
	
		<rect x="2077.6" y="4253" transform="matrix(0.7071 0.7071 -0.7071 0.7071 3641.3904 -234.0188)" class="st1" width="51.1" height="51.1"/>
	
		<rect x="2145.5" y="4253" transform="matrix(0.7071 0.7071 -0.7071 0.7071 3661.2656 -282.002)" class="st1" width="51.1" height="51.1"/>
	
		<rect x="2219.4" y="4253" transform="matrix(0.7071 0.7071 -0.7071 0.7071 3682.9111 -334.2589)" class="st1" width="51.1" height="51.1"/>
	
		<rect x="2290.1" y="4253" transform="matrix(0.7071 0.7071 -0.7071 0.7071 3703.6301 -384.279)" class="st1" width="51.1" height="51.1"/>
	
		<rect x="2359.6" y="4253" transform="matrix(0.7071 0.7071 -0.7071 0.7071 3723.9688 -433.3806)" class="st1" width="51.1" height="51.1"/>
	
		<rect x="2431.9" y="4253" transform="matrix(0.7071 0.7071 -0.7071 0.7071 3745.1511 -484.5191)" class="st1" width="51.1" height="51.1"/>
	
		<rect x="2499.7" y="4253" transform="matrix(0.7071 0.7071 -0.7071 0.7071 3765.0264 -532.5023)" class="st1" width="51.1" height="51.1"/>
	
		<rect x="2573.6" y="4253" transform="matrix(0.7071 0.7071 -0.7071 0.7071 3786.6719 -584.7592)" class="st1" width="51.1" height="51.1"/>
	
		<rect x="2645.7" y="4253" transform="matrix(0.7071 0.7071 -0.7071 0.7071 3807.7712 -635.6978)" class="st1" width="51.1" height="51.1"/>
	
		<rect x="2715.1" y="4253" transform="matrix(0.7071 0.7071 -0.7071 0.7071 3828.1099 -684.7994)" class="st1" width="51.1" height="51.1"/>
	
		<rect x="2787.4" y="4253" transform="matrix(0.7071 0.7071 -0.7071 0.7071 3849.292 -735.9379)" class="st1" width="51.1" height="51.1"/>
	
		<rect x="2855.3" y="4253" transform="matrix(0.7071 0.7071 -0.7071 0.7071 3869.1675 -783.9211)" class="st1" width="51.1" height="51.1"/>
	
		<rect x="2929.2" y="4253" transform="matrix(0.7071 0.7071 -0.7071 0.7071 3890.813 -836.178)" class="st1" width="51.1" height="51.1"/>
	
		<rect x="2999.9" y="4253" transform="matrix(0.7071 0.7071 -0.7071 0.7071 3911.532 -886.1981)" class="st1" width="51.1" height="51.1"/>
	
		<rect x="3069.4" y="4253" transform="matrix(0.7071 0.7071 -0.7071 0.7071 3931.8704 -935.2997)" class="st1" width="51.1" height="51.1"/>
	
		<rect x="3141.7" y="4253" transform="matrix(0.7071 0.7071 -0.7071 0.7071 3953.0527 -986.4382)" class="st1" width="51.1" height="51.1"/>
	
		<rect x="3209.6" y="4253" transform="matrix(0.7071 0.7071 -0.7071 0.7071 3972.928 -1034.4214)" class="st1" width="51.1" height="51.1"/>
	
		<rect x="3283.5" y="4253" transform="matrix(0.7071 0.7071 -0.7071 0.7071 3994.5735 -1086.6783)" class="st1" width="51.1" height="51.1"/>
	
		<rect x="3352.9" y="4253" transform="matrix(0.7071 0.7071 -0.7071 0.7071 4014.9121 -1135.7799)" class="st1" width="51.1" height="51.1"/>
	
		<rect x="3425.2" y="4253" transform="matrix(0.7071 0.7071 -0.7071 0.7071 4036.0942 -1186.9185)" class="st1" width="51.1" height="51.1"/>
	
		<rect x="3493.1" y="4253" transform="matrix(0.7071 0.7071 -0.7071 0.7071 4055.9697 -1234.9016)" class="st1" width="51.1" height="51.1"/>
	
		<rect x="3567" y="4253" transform="matrix(0.7071 0.7071 -0.7071 0.7071 4077.6152 -1287.1586)" class="st1" width="51.1" height="51.1"/>
	
		<rect x="3637.7" y="4253" transform="matrix(0.7071 0.7071 -0.7071 0.7071 4098.334 -1337.1786)" class="st1" width="51.1" height="51.1"/>
	
		<rect x="3707.2" y="4253" transform="matrix(0.7071 0.7071 -0.7071 0.7071 4118.6729 -1386.2802)" class="st1" width="51.1" height="51.1"/>
	
		<rect x="3779.5" y="4253" transform="matrix(0.7071 0.7071 -0.7071 0.7071 4139.855 -1437.4187)" class="st1" width="51.1" height="51.1"/>
	
		<rect x="3847.3" y="4253" transform="matrix(0.7071 0.7071 -0.7071 0.7071 4159.7305 -1485.4019)" class="st1" width="51.1" height="51.1"/>
	
		<rect x="3921.2" y="4253" transform="matrix(0.7071 0.7071 -0.7071 0.7071 4181.376 -1537.6588)" class="st1" width="51.1" height="51.1"/>
	
		<rect x="3993.3" y="4253" transform="matrix(0.7071 0.7071 -0.7071 0.7071 4202.4751 -1588.5974)" class="st1" width="51.1" height="51.1"/>
	
		<rect x="4062.7" y="4253" transform="matrix(0.7071 0.7071 -0.7071 0.7071 4222.814 -1637.699)" class="st1" width="51.1" height="51.1"/>
	
		<rect x="4135" y="4253" transform="matrix(0.7071 0.7071 -0.7071 0.7071 4243.9961 -1688.8375)" class="st1" width="51.1" height="51.1"/>
	
		<rect x="4202.9" y="4253" transform="matrix(0.7071 0.7071 -0.7071 0.7071 4263.8711 -1736.8207)" class="st1" width="51.1" height="51.1"/>
	
		<rect x="4276.8" y="4253" transform="matrix(0.7071 0.7071 -0.7071 0.7071 4285.5171 -1789.0776)" class="st1" width="51.1" height="51.1"/>
	
		<rect x="4347.5" y="4253" transform="matrix(0.7071 0.7071 -0.7071 0.7071 4306.2358 -1839.0977)" class="st1" width="51.1" height="51.1"/>
	
		<rect x="4417" y="4253" transform="matrix(0.7071 0.7071 -0.7071 0.7071 4326.5742 -1888.1992)" class="st1" width="51.1" height="51.1"/>
	
		<rect x="4489.3" y="4253" transform="matrix(0.7071 0.7071 -0.7071 0.7071 4347.7568 -1939.3378)" class="st1" width="51.1" height="51.1"/>
	
		<rect x="4557.2" y="4253" transform="matrix(0.7071 0.7071 -0.7071 0.7071 4367.6318 -1987.3209)" class="st1" width="51.1" height="51.1"/>
	
		<rect x="4631.1" y="4253" transform="matrix(0.7071 0.7071 -0.7071 0.7071 4389.2773 -2039.5779)" class="st1" width="51.1" height="51.1"/>
	
		<rect x="4701.8" y="4253" transform="matrix(0.7071 0.7071 -0.7071 0.7071 4409.9966 -2089.5979)" class="st1" width="51.1" height="51.1"/>
	
		<rect x="4771.2" y="4253" transform="matrix(0.7071 0.7071 -0.7071 0.7071 4430.335 -2138.6995)" class="st1" width="51.1" height="51.1"/>
	
		<rect x="4843.6" y="4253" transform="matrix(0.7071 0.7071 -0.7071 0.7071 4451.5171 -2189.8381)" class="st1" width="51.1" height="51.1"/>
	
		<rect x="4911.4" y="4253" transform="matrix(0.7071 0.7071 -0.7071 0.7071 4471.3926 -2237.8213)" class="st1" width="51.1" height="51.1"/>
	
		<rect x="4985.3" y="4253" transform="matrix(0.7071 0.7071 -0.7071 0.7071 4493.0381 -2290.0781)" class="st1" width="51.1" height="51.1"/>
	
		<rect x="5056.1" y="4253" transform="matrix(0.7071 0.7071 -0.7071 0.7071 4513.7573 -2340.0981)" class="st1" width="51.1" height="51.1"/>
	
		<rect x="5125.5" y="4253" transform="matrix(0.7071 0.7071 -0.7071 0.7071 4534.0957 -2389.2)" class="st1" width="51.1" height="51.1"/>
	
		<rect x="5197.8" y="4253" transform="matrix(0.7071 0.7071 -0.7071 0.7071 4555.2778 -2440.3384)" class="st1" width="51.1" height="51.1"/>
	
		<rect x="5265.7" y="4253" transform="matrix(0.7071 0.7071 -0.7071 0.7071 4575.1533 -2488.3215)" class="st1" width="51.1" height="51.1"/>
	
		<rect x="5339.6" y="4253" transform="matrix(0.7071 0.7071 -0.7071 0.7071 4596.7988 -2540.5784)" class="st1" width="51.1" height="51.1"/>
	
		<rect x="5411.6" y="4253" transform="matrix(0.7071 0.7071 -0.7071 0.7071 4617.8979 -2591.5171)" class="st1" width="51.1" height="51.1"/>
	
		<rect x="5483.8" y="4253" transform="matrix(0.7071 0.7071 -0.7071 0.7071 4639.0391 -2642.5557)" class="st1" width="51.1" height="51.1"/>
	
		<rect x="446.8" y="356.4" transform="matrix(0.7071 0.7071 -0.7071 0.7071 408.4243 -222.123)" class="st1" width="51.1" height="51.1"/>
	
		<rect x="517.5" y="356.4" transform="matrix(0.7071 0.7071 -0.7071 0.7071 429.1433 -272.143)" class="st1" width="51.1" height="51.1"/>
	
		<rect x="586.9" y="356.4" transform="matrix(0.7071 0.7071 -0.7071 0.7071 449.4818 -321.2447)" class="st1" width="51.1" height="51.1"/>
	
		<rect x="659.3" y="356.4" transform="matrix(0.7071 0.7071 -0.7071 0.7071 470.6641 -372.3831)" class="st1" width="51.1" height="51.1"/>
	
		<rect x="727.1" y="356.4" transform="matrix(0.7071 0.7071 -0.7071 0.7071 490.5394 -420.3664)" class="st1" width="51.1" height="51.1"/>
	
		<rect x="801" y="356.4" transform="matrix(0.7071 0.7071 -0.7071 0.7071 512.1849 -472.6233)" class="st1" width="51.1" height="51.1"/>
	
		<rect x="871.8" y="356.4" transform="matrix(0.7071 0.7071 -0.7071 0.7071 532.9039 -522.6434)" class="st1" width="51.1" height="51.1"/>
	
		<rect x="941.2" y="356.4" transform="matrix(0.7071 0.7071 -0.7071 0.7071 553.2425 -571.745)" class="st1" width="51.1" height="51.1"/>
	
		<rect x="1013.5" y="356.4" transform="matrix(0.7071 0.7071 -0.7071 0.7071 574.4247 -622.8835)" class="st1" width="51.1" height="51.1"/>
	
		<rect x="1081.4" y="356.4" transform="matrix(0.7071 0.7071 -0.7071 0.7071 594.3 -670.8666)" class="st1" width="51.1" height="51.1"/>
	
		<rect x="1155.3" y="356.4" transform="matrix(0.7071 0.7071 -0.7071 0.7071 615.9456 -723.1236)" class="st1" width="51.1" height="51.1"/>
	
		<rect x="1227.3" y="356.4" transform="matrix(0.7071 0.7071 -0.7071 0.7071 637.045 -774.0621)" class="st1" width="51.1" height="51.1"/>
	
		<rect x="1296.8" y="356.4" transform="matrix(0.7071 0.7071 -0.7071 0.7071 657.3835 -823.1638)" class="st1" width="51.1" height="51.1"/>
	
		<rect x="1369.1" y="356.4" transform="matrix(0.7071 0.7071 -0.7071 0.7071 678.5658 -874.3022)" class="st1" width="51.1" height="51.1"/>
	
		<rect x="1436.9" y="356.4" transform="matrix(0.7071 0.7071 -0.7071 0.7071 698.4411 -922.2854)" class="st1" width="51.1" height="51.1"/>
	
		<rect x="1510.9" y="356.4" transform="matrix(0.7071 0.7071 -0.7071 0.7071 720.0866 -974.5424)" class="st1" width="51.1" height="51.1"/>
	
		<rect x="1581.6" y="356.4" transform="matrix(0.7071 0.7071 -0.7071 0.7071 740.8056 -1024.5624)" class="st1" width="51.1" height="51.1"/>
	
		<rect x="1651" y="356.4" transform="matrix(0.7071 0.7071 -0.7071 0.7071 761.1442 -1073.6641)" class="st1" width="51.1" height="51.1"/>
	
		<rect x="1723.4" y="356.4" transform="matrix(0.7071 0.7071 -0.7071 0.7071 782.3264 -1124.8025)" class="st1" width="51.1" height="51.1"/>
	
		<rect x="1791.2" y="356.4" transform="matrix(0.7071 0.7071 -0.7071 0.7071 802.2017 -1172.7858)" class="st1" width="51.1" height="51.1"/>
	
		<rect x="1865.1" y="356.4" transform="matrix(0.7071 0.7071 -0.7071 0.7071 823.8472 -1225.0426)" class="st1" width="51.1" height="51.1"/>
	
		<rect x="1935.9" y="356.4" transform="matrix(0.7071 0.7071 -0.7071 0.7071 844.5662 -1275.0627)" class="st1" width="51.1" height="51.1"/>
	
		<rect x="2005.3" y="356.4" transform="matrix(0.7071 0.7071 -0.7071 0.7071 864.9048 -1324.1643)" class="st1" width="51.1" height="51.1"/>
	
		<rect x="2077.6" y="356.4" transform="matrix(0.7071 0.7071 -0.7071 0.7071 886.087 -1375.3029)" class="st1" width="51.1" height="51.1"/>
	
		<rect x="2145.5" y="356.4" transform="matrix(0.7071 0.7071 -0.7071 0.7071 905.9623 -1423.286)" class="st1" width="51.1" height="51.1"/>
	
		<rect x="2219.4" y="356.4" transform="matrix(0.7071 0.7071 -0.7071 0.7071 927.6078 -1475.543)" class="st1" width="51.1" height="51.1"/>
	
		<rect x="2290.1" y="356.4" transform="matrix(0.7071 0.7071 -0.7071 0.7071 948.3268 -1525.563)" class="st1" width="51.1" height="51.1"/>
	
		<rect x="2359.6" y="356.4" transform="matrix(0.7071 0.7071 -0.7071 0.7071 968.6654 -1574.6647)" class="st1" width="51.1" height="51.1"/>
	
		<rect x="2431.9" y="356.4" transform="matrix(0.7071 0.7071 -0.7071 0.7071 989.8477 -1625.8031)" class="st1" width="51.1" height="51.1"/>
	
		<rect x="2499.7" y="356.4" transform="matrix(0.7071 0.7071 -0.7071 0.7071 1009.723 -1673.7864)" class="st1" width="51.1" height="51.1"/>
	
		<rect x="2573.6" y="356.4" transform="matrix(0.7071 0.7071 -0.7071 0.7071 1031.3685 -1726.0432)" class="st1" width="51.1" height="51.1"/>
	
		<rect x="2645.7" y="356.4" transform="matrix(0.7071 0.7071 -0.7071 0.7071 1052.4679 -1776.9818)" class="st1" width="51.1" height="51.1"/>
	
		<rect x="2715.1" y="356.4" transform="matrix(0.7071 0.7071 -0.7071 0.7071 1072.8065 -1826.0834)" class="st1" width="51.1" height="51.1"/>
	
		<rect x="2787.4" y="356.4" transform="matrix(0.7071 0.7071 -0.7071 0.7071 1093.9888 -1877.2219)" class="st1" width="51.1" height="51.1"/>
	
		<rect x="2855.3" y="356.4" transform="matrix(0.7071 0.7071 -0.7071 0.7071 1113.864 -1925.2051)" class="st1" width="51.1" height="51.1"/>
	
		<rect x="2929.2" y="356.4" transform="matrix(0.7071 0.7071 -0.7071 0.7071 1135.5095 -1977.462)" class="st1" width="51.1" height="51.1"/>
	
		<rect x="2999.9" y="356.4" transform="matrix(0.7071 0.7071 -0.7071 0.7071 1156.2285 -2027.4821)" class="st1" width="51.1" height="51.1"/>
	
		<rect x="3069.4" y="356.4" transform="matrix(0.7071 0.7071 -0.7071 0.7071 1176.5671 -2076.5837)" class="st1" width="51.1" height="51.1"/>
	
		<rect x="3141.7" y="356.4" transform="matrix(0.7071 0.7071 -0.7071 0.7071 1197.7494 -2127.7222)" class="st1" width="51.1" height="51.1"/>
	
		<rect x="3209.6" y="356.4" transform="matrix(0.7071 0.7071 -0.7071 0.7071 1217.6246 -2175.7053)" class="st1" width="51.1" height="51.1"/>
	
		<rect x="3283.5" y="356.4" transform="matrix(0.7071 0.7071 -0.7071 0.7071 1239.2701 -2227.9624)" class="st1" width="51.1" height="51.1"/>
	
		<rect x="3352.9" y="356.4" transform="matrix(0.7071 0.7071 -0.7071 0.7071 1259.6088 -2277.064)" class="st1" width="51.1" height="51.1"/>
	
		<rect x="3425.2" y="356.4" transform="matrix(0.7071 0.7071 -0.7071 0.7071 1280.791 -2328.2024)" class="st1" width="51.1" height="51.1"/>
	
		<rect x="3493.1" y="356.4" transform="matrix(0.7071 0.7071 -0.7071 0.7071 1300.6663 -2376.1855)" class="st1" width="51.1" height="51.1"/>
	
		<rect x="3567" y="356.4" transform="matrix(0.7071 0.7071 -0.7071 0.7071 1322.3118 -2428.4426)" class="st1" width="51.1" height="51.1"/>
	
		<rect x="3637.7" y="356.4" transform="matrix(0.7071 0.7071 -0.7071 0.7071 1343.0308 -2478.4626)" class="st1" width="51.1" height="51.1"/>
	
		<rect x="3707.2" y="356.4" transform="matrix(0.7071 0.7071 -0.7071 0.7071 1363.3694 -2527.5642)" class="st1" width="51.1" height="51.1"/>
	
		<rect x="3779.5" y="356.4" transform="matrix(0.7071 0.7071 -0.7071 0.7071 1384.5516 -2578.7026)" class="st1" width="51.1" height="51.1"/>
	
		<rect x="3847.3" y="356.4" transform="matrix(0.7071 0.7071 -0.7071 0.7071 1404.4269 -2626.686)" class="st1" width="51.1" height="51.1"/>
	
		<rect x="3921.2" y="356.4" transform="matrix(0.7071 0.7071 -0.7071 0.7071 1426.0724 -2678.9429)" class="st1" width="51.1" height="51.1"/>
	
		<rect x="3993.3" y="356.4" transform="matrix(0.7071 0.7071 -0.7071 0.7071 1447.1719 -2729.8813)" class="st1" width="51.1" height="51.1"/>
	
		<rect x="4062.7" y="356.4" transform="matrix(0.7071 0.7071 -0.7071 0.7071 1467.5104 -2778.9829)" class="st1" width="51.1" height="51.1"/>
	
		<rect x="4135" y="356.4" transform="matrix(0.7071 0.7071 -0.7071 0.7071 1488.6926 -2830.1216)" class="st1" width="51.1" height="51.1"/>
	
		<rect x="4202.9" y="356.4" transform="matrix(0.7071 0.7071 -0.7071 0.7071 1508.568 -2878.1047)" class="st1" width="51.1" height="51.1"/>
	
		<rect x="4276.8" y="356.4" transform="matrix(0.7071 0.7071 -0.7071 0.7071 1530.2135 -2930.3616)" class="st1" width="51.1" height="51.1"/>
	
		<rect x="4347.5" y="356.4" transform="matrix(0.7071 0.7071 -0.7071 0.7071 1550.9325 -2980.3816)" class="st1" width="51.1" height="51.1"/>
	
		<rect x="4417" y="356.4" transform="matrix(0.7071 0.7071 -0.7071 0.7071 1571.271 -3029.4834)" class="st1" width="51.1" height="51.1"/>
	
		<rect x="4489.3" y="356.4" transform="matrix(0.7071 0.7071 -0.7071 0.7071 1592.4532 -3080.6218)" class="st1" width="51.1" height="51.1"/>
	
		<rect x="4557.2" y="356.4" transform="matrix(0.7071 0.7071 -0.7071 0.7071 1612.3286 -3128.605)" class="st1" width="51.1" height="51.1"/>
	
		<rect x="4631.1" y="356.4" transform="matrix(0.7071 0.7071 -0.7071 0.7071 1633.9741 -3180.8618)" class="st1" width="51.1" height="51.1"/>
	
		<rect x="4701.8" y="356.4" transform="matrix(0.7071 0.7071 -0.7071 0.7071 1654.6931 -3230.8821)" class="st1" width="51.1" height="51.1"/>
	
		<rect x="4771.2" y="356.4" transform="matrix(0.7071 0.7071 -0.7071 0.7071 1675.0316 -3279.9836)" class="st1" width="51.1" height="51.1"/>
	
		<rect x="4843.6" y="356.4" transform="matrix(0.7071 0.7071 -0.7071 0.7071 1696.2139 -3331.1221)" class="st1" width="51.1" height="51.1"/>
	
		<rect x="4911.4" y="356.4" transform="matrix(0.7071 0.7071 -0.7071 0.7071 1716.0892 -3379.1052)" class="st1" width="51.1" height="51.1"/>
	
		<rect x="4985.3" y="356.4" transform="matrix(0.7071 0.7071 -0.7071 0.7071 1737.7347 -3431.3623)" class="st1" width="51.1" height="51.1"/>
	
		<rect x="5056.1" y="356.4" transform="matrix(0.7071 0.7071 -0.7071 0.7071 1758.4537 -3481.3823)" class="st1" width="51.1" height="51.1"/>
	
		<rect x="5125.5" y="356.4" transform="matrix(0.7071 0.7071 -0.7071 0.7071 1778.7922 -3530.4839)" class="st1" width="51.1" height="51.1"/>
	
		<rect x="5197.8" y="356.4" transform="matrix(0.7071 0.7071 -0.7071 0.7071 1799.9745 -3581.6223)" class="st1" width="51.1" height="51.1"/>
	
		<rect x="5265.7" y="356.4" transform="matrix(0.7071 0.7071 -0.7071 0.7071 1819.8499 -3629.6057)" class="st1" width="51.1" height="51.1"/>
	
		<rect x="5339.6" y="356.4" transform="matrix(0.7071 0.7071 -0.7071 0.7071 1841.4954 -3681.8625)" class="st1" width="51.1" height="51.1"/>
	
		<rect x="5411.6" y="356.4" transform="matrix(0.7071 0.7071 -0.7071 0.7071 1862.5947 -3732.801)" class="st1" width="51.1" height="51.1"/>
	
		<rect x="5483.8" y="4182.2" transform="matrix(0.7071 -0.7071 0.7071 0.7071 -1361.7069 5128.146)" class="st1" width="51.1" height="51.1"/>
	
		<rect x="5483.8" y="4112.8" transform="matrix(0.7071 -0.7071 0.7071 0.7071 -1312.6053 5107.8071)" class="st1" width="51.1" height="51.1"/>
	
		<rect x="5483.8" y="4040.5" transform="matrix(0.7071 -0.7071 0.7071 0.7071 -1261.4668 5086.625)" class="st1" width="51.1" height="51.1"/>
	
		<rect x="5483.8" y="3972.6" transform="matrix(0.7071 -0.7071 0.7071 0.7071 -1213.4836 5066.75)" class="st1" width="51.1" height="51.1"/>
	
		<rect x="5483.8" y="3898.7" transform="matrix(0.7071 -0.7071 0.7071 0.7071 -1161.2267 5045.1045)" class="st1" width="51.1" height="51.1"/>
	
		<rect x="5483.8" y="3828" transform="matrix(0.7071 -0.7071 0.7071 0.7071 -1111.2067 5024.3853)" class="st1" width="51.1" height="51.1"/>
	
		<rect x="5483.8" y="3758.5" transform="matrix(0.7071 -0.7071 0.7071 0.7071 -1062.105 5004.0469)" class="st1" width="51.1" height="51.1"/>
	
		<rect x="5483.8" y="3686.2" transform="matrix(0.7071 -0.7071 0.7071 0.7071 -1010.9665 4982.8643)" class="st1" width="51.1" height="51.1"/>
	
		<rect x="5483.8" y="3618.3" transform="matrix(0.7071 -0.7071 0.7071 0.7071 -962.9833 4962.9893)" class="st1" width="51.1" height="51.1"/>
	
		<rect x="5483.8" y="3544.4" transform="matrix(0.7071 -0.7071 0.7071 0.7071 -910.7264 4941.3438)" class="st1" width="51.1" height="51.1"/>
	
		<rect x="5483.8" y="3472.4" transform="matrix(0.7071 -0.7071 0.7071 0.7071 -859.7878 4920.2441)" class="st1" width="51.1" height="51.1"/>
	
		<rect x="5483.8" y="3403" transform="matrix(0.7071 -0.7071 0.7071 0.7071 -810.6862 4899.9058)" class="st1" width="51.1" height="51.1"/>
	
		<rect x="5483.8" y="3330.6" transform="matrix(0.7071 -0.7071 0.7071 0.7071 -759.5477 4878.7236)" class="st1" width="51.1" height="51.1"/>
	
		<rect x="5483.8" y="3262.8" transform="matrix(0.7071 -0.7071 0.7071 0.7071 -711.5645 4858.8481)" class="st1" width="51.1" height="51.1"/>
	
		<rect x="5483.8" y="3188.9" transform="matrix(0.7071 -0.7071 0.7071 0.7071 -659.3076 4837.2026)" class="st1" width="51.1" height="51.1"/>
	
		<rect x="5483.8" y="3118.1" transform="matrix(0.7071 -0.7071 0.7071 0.7071 -609.2875 4816.4834)" class="st1" width="51.1" height="51.1"/>
	
		<rect x="5483.8" y="3048.7" transform="matrix(0.7071 -0.7071 0.7071 0.7071 -560.1859 4796.145)" class="st1" width="51.1" height="51.1"/>
	
		<rect x="5483.8" y="2976.4" transform="matrix(0.7071 -0.7071 0.7071 0.7071 -509.0474 4774.9629)" class="st1" width="51.1" height="51.1"/>
	
		<rect x="5483.8" y="2908.5" transform="matrix(0.7071 -0.7071 0.7071 0.7071 -461.0642 4755.0874)" class="st1" width="51.1" height="51.1"/>
	
		<rect x="5483.8" y="2834.6" transform="matrix(0.7071 -0.7071 0.7071 0.7071 -408.8073 4733.4419)" class="st1" width="51.1" height="51.1"/>
	
		<rect x="5483.8" y="2763.9" transform="matrix(0.7071 -0.7071 0.7071 0.7071 -358.7872 4712.7231)" class="st1" width="51.1" height="51.1"/>
	
		<rect x="5483.8" y="2694.4" transform="matrix(0.7071 -0.7071 0.7071 0.7071 -309.6856 4692.3843)" class="st1" width="51.1" height="51.1"/>
	
		<rect x="5483.8" y="2622.1" transform="matrix(0.7071 -0.7071 0.7071 0.7071 -258.5471 4671.2021)" class="st1" width="51.1" height="51.1"/>
	
		<rect x="5483.8" y="2554.3" transform="matrix(0.7071 -0.7071 0.7071 0.7071 -210.5639 4651.3267)" class="st1" width="51.1" height="51.1"/>
	
		<rect x="5483.8" y="2480.4" transform="matrix(0.7071 -0.7071 0.7071 0.7071 -158.307 4629.6812)" class="st1" width="51.1" height="51.1"/>
	
		<rect x="5483.8" y="2409.6" transform="matrix(0.7071 -0.7071 0.7071 0.7071 -108.2869 4608.9624)" class="st1" width="51.1" height="51.1"/>
	
		<rect x="5483.8" y="2340.2" transform="matrix(0.7071 -0.7071 0.7071 0.7071 -59.1853 4588.624)" class="st1" width="51.1" height="51.1"/>
	
		<rect x="5483.8" y="2267.9" transform="matrix(0.7071 -0.7071 0.7071 0.7071 -8.0468 4567.4414)" class="st1" width="51.1" height="51.1"/>
	
		<rect x="5483.8" y="2200" transform="matrix(0.7071 -0.7071 0.7071 0.7071 39.9364 4547.5664)" class="st1" width="51.1" height="51.1"/>
	
		<rect x="5483.8" y="2126.1" transform="matrix(0.7071 -0.7071 0.7071 0.7071 92.1933 4525.9209)" class="st1" width="51.1" height="51.1"/>
	
		<rect x="5483.8" y="2054.1" transform="matrix(0.7071 -0.7071 0.7071 0.7071 143.1318 4504.8213)" class="st1" width="51.1" height="51.1"/>
	
		<rect x="5483.8" y="1984.6" transform="matrix(0.7071 -0.7071 0.7071 0.7071 192.2334 4484.4829)" class="st1" width="51.1" height="51.1"/>
	
		<rect x="5483.8" y="1912.3" transform="matrix(0.7071 -0.7071 0.7071 0.7071 243.3719 4463.3003)" class="st1" width="51.1" height="51.1"/>
	
		<rect x="5483.8" y="1844.4" transform="matrix(0.7071 -0.7071 0.7071 0.7071 291.3551 4443.4253)" class="st1" width="51.1" height="51.1"/>
	
		<rect x="5483.8" y="1770.5" transform="matrix(0.7071 -0.7071 0.7071 0.7071 343.6121 4421.7798)" class="st1" width="51.1" height="51.1"/>
	
		<rect x="5483.8" y="1699.8" transform="matrix(0.7071 -0.7071 0.7071 0.7071 393.6321 4401.0605)" class="st1" width="51.1" height="51.1"/>
	
		<rect x="5483.8" y="1630.4" transform="matrix(0.7071 -0.7071 0.7071 0.7071 442.7338 4380.7222)" class="st1" width="51.1" height="51.1"/>
	
		<rect x="5483.8" y="1558" transform="matrix(0.7071 -0.7071 0.7071 0.7071 493.8723 4359.54)" class="st1" width="51.1" height="51.1"/>
	
		<rect x="5483.8" y="1490.2" transform="matrix(0.7071 -0.7071 0.7071 0.7071 541.8555 4339.6646)" class="st1" width="51.1" height="51.1"/>
	
		<rect x="5483.8" y="1416.3" transform="matrix(0.7071 -0.7071 0.7071 0.7071 594.1124 4318.019)" class="st1" width="51.1" height="51.1"/>
	
		<rect x="5483.8" y="1346.8" transform="matrix(0.7071 -0.7071 0.7071 0.7071 643.214 4297.6807)" class="st1" width="51.1" height="51.1"/>
	
		<rect x="5483.8" y="1274.5" transform="matrix(0.7071 -0.7071 0.7071 0.7071 694.3525 4276.498)" class="st1" width="51.1" height="51.1"/>
	
		<rect x="5483.8" y="1206.7" transform="matrix(0.7071 -0.7071 0.7071 0.7071 742.3357 4256.623)" class="st1" width="51.1" height="51.1"/>
	
		<rect x="5483.8" y="1132.8" transform="matrix(0.7071 -0.7071 0.7071 0.7071 794.5926 4234.9775)" class="st1" width="51.1" height="51.1"/>
	
		<rect x="5483.8" y="1062" transform="matrix(0.7071 -0.7071 0.7071 0.7071 844.6127 4214.2583)" class="st1" width="51.1" height="51.1"/>
	
		<rect x="5483.8" y="992.6" transform="matrix(0.7071 -0.7071 0.7071 0.7071 893.7143 4193.9199)" class="st1" width="51.1" height="51.1"/>
	
		<rect x="5483.8" y="920.3" transform="matrix(0.7071 -0.7071 0.7071 0.7071 944.8528 4172.7378)" class="st1" width="51.1" height="51.1"/>
	
		<rect x="5483.8" y="852.4" transform="matrix(0.7071 -0.7071 0.7071 0.7071 992.836 4152.8623)" class="st1" width="51.1" height="51.1"/>
	
		<rect x="5483.8" y="783" transform="matrix(0.7071 -0.7071 0.7071 0.7071 1041.9376 4132.5239)" class="st1" width="51.1" height="51.1"/>
	
		<rect x="5483.8" y="710.6" transform="matrix(0.7071 -0.7071 0.7071 0.7071 1093.076 4111.3413)" class="st1" width="51.1" height="51.1"/>
	
		<rect x="5483.8" y="642.8" transform="matrix(0.7071 -0.7071 0.7071 0.7071 1141.0593 4091.4663)" class="st1" width="51.1" height="51.1"/>
	
		<rect x="5483.8" y="568.9" transform="matrix(0.7071 -0.7071 0.7071 0.7071 1193.3162 4069.8206)" class="st1" width="51.1" height="51.1"/>
	
		<rect x="5483.8" y="498.1" transform="matrix(0.7071 -0.7071 0.7071 0.7071 1243.3363 4049.1016)" class="st1" width="51.1" height="51.1"/>
	
		<rect x="5483.8" y="428.7" transform="matrix(0.7071 -0.7071 0.7071 0.7071 1292.4379 4028.7632)" class="st1" width="51.1" height="51.1"/>
	
		<rect x="5483.8" y="356.4" transform="matrix(0.7071 -0.7071 0.7071 0.7071 1343.5764 4007.5808)" class="st1" width="51.1" height="51.1"/>
</g>
<g id="horizon">
	<linearGradient id="SVGID_1_" gradientUnits="userSpaceOnUse" x1="2990.8523" y1="483.9277" x2="2990.8523" y2="2126.2412">
		<stop  offset="0" style="stop-color:#F19220"/>
		<stop  offset="1" style="stop-color:#EB6924"/>
	</linearGradient>
	<rect x="567" y="483.9" class="st2" width="4847.8" height="1642.3"/>
	<linearGradient id="SVGID_2_" gradientUnits="userSpaceOnUse" x1="2990.8523" y1="2126.2412" x2="2990.8523" y2="4170.4507">
		<stop  offset="0" style="stop-color:#F19220"/>
		<stop  offset="1" style="stop-color:#EB6924"/>
	</linearGradient>
	<rect x="567" y="2126.2" class="st3" width="4847.8" height="2044.2"/>
</g>
<g id="inner_frame">
	
		<rect x="548.8" y="4154.2" transform="matrix(0.7071 0.7071 -0.7071 0.7071 3116.3762 821.164)" class="st4" width="36.4" height="36.4"/>
	
		<rect x="599.1" y="4154.2" transform="matrix(0.7071 0.7071 -0.7071 0.7071 3131.1167 785.5771)" class="st4" width="36.4" height="36.4"/>
	
		<rect x="648.5" y="4154.2" transform="matrix(0.7071 0.7071 -0.7071 0.7071 3145.5867 750.6437)" class="st4" width="36.4" height="36.4"/>
	
		<rect x="699.9" y="4154.2" transform="matrix(0.7071 0.7071 -0.7071 0.7071 3160.6567 714.2612)" class="st4" width="36.4" height="36.4"/>
	
		<rect x="748.2" y="4154.2" transform="matrix(0.7071 0.7071 -0.7071 0.7071 3174.7971 680.1235)" class="st4" width="36.4" height="36.4"/>
	
		<rect x="800.8" y="4154.2" transform="matrix(0.7071 0.7071 -0.7071 0.7071 3190.1968 642.9453)" class="st4" width="36.4" height="36.4"/>
	
		<rect x="851.1" y="4154.2" transform="matrix(0.7071 0.7071 -0.7071 0.7071 3204.9373 607.3585)" class="st4" width="36.4" height="36.4"/>
	
		<rect x="900.5" y="4154.2" transform="matrix(0.7071 0.7071 -0.7071 0.7071 3219.4072 572.425)" class="st4" width="36.4" height="36.4"/>
	
		<rect x="952" y="4154.2" transform="matrix(0.7071 0.7071 -0.7071 0.7071 3234.4773 536.0425)" class="st4" width="36.4" height="36.4"/>
	
		<rect x="1000.3" y="4154.2" transform="matrix(0.7071 0.7071 -0.7071 0.7071 3248.6177 501.9048)" class="st4" width="36.4" height="36.4"/>
	
		<rect x="1052.8" y="4154.2" transform="matrix(0.7071 0.7071 -0.7071 0.7071 3264.0173 464.7266)" class="st4" width="36.4" height="36.4"/>
	
		<rect x="1104.1" y="4154.2" transform="matrix(0.7071 0.7071 -0.7071 0.7071 3279.0286 428.4863)" class="st4" width="36.4" height="36.4"/>
	
		<rect x="1153.5" y="4154.2" transform="matrix(0.7071 0.7071 -0.7071 0.7071 3293.4985 393.5529)" class="st4" width="36.4" height="36.4"/>
	
		<rect x="1205" y="4154.2" transform="matrix(0.7071 0.7071 -0.7071 0.7071 3308.5686 357.1704)" class="st4" width="36.4" height="36.4"/>
	
		<rect x="1253.2" y="4154.2" transform="matrix(0.7071 0.7071 -0.7071 0.7071 3322.709 323.0327)" class="st4" width="36.4" height="36.4"/>
	
		<rect x="1305.8" y="4154.2" transform="matrix(0.7071 0.7071 -0.7071 0.7071 3338.1086 285.8544)" class="st4" width="36.4" height="36.4"/>
	
		<rect x="1356.1" y="4154.2" transform="matrix(0.7071 0.7071 -0.7071 0.7071 3352.8491 250.2676)" class="st4" width="36.4" height="36.4"/>
	
		<rect x="1405.5" y="4154.2" transform="matrix(0.7071 0.7071 -0.7071 0.7071 3367.3191 215.3342)" class="st4" width="36.4" height="36.4"/>
	
		<rect x="1457" y="4154.2" transform="matrix(0.7071 0.7071 -0.7071 0.7071 3382.3892 178.9517)" class="st4" width="36.4" height="36.4"/>
	
		<rect x="1505.3" y="4154.2" transform="matrix(0.7071 0.7071 -0.7071 0.7071 3396.5295 144.814)" class="st4" width="36.4" height="36.4"/>
	
		<rect x="1557.8" y="4154.2" transform="matrix(0.7071 0.7071 -0.7071 0.7071 3411.9292 107.6357)" class="st4" width="36.4" height="36.4"/>
	
		<rect x="1608.2" y="4154.2" transform="matrix(0.7071 0.7071 -0.7071 0.7071 3426.6697 72.0489)" class="st4" width="36.4" height="36.4"/>
	
		<rect x="1657.6" y="4154.2" transform="matrix(0.7071 0.7071 -0.7071 0.7071 3441.1396 37.1155)" class="st4" width="36.4" height="36.4"/>
	
		<rect x="1709" y="4154.2" transform="matrix(0.7071 0.7071 -0.7071 0.7071 3456.2097 0.733)" class="st4" width="36.4" height="36.4"/>
	
		<rect x="1757.3" y="4154.2" transform="matrix(0.7071 0.7071 -0.7071 0.7071 3470.3501 -33.4047)" class="st4" width="36.4" height="36.4"/>
	
		<rect x="1809.9" y="4154.2" transform="matrix(0.7071 0.7071 -0.7071 0.7071 3485.7498 -70.583)" class="st4" width="36.4" height="36.4"/>
	
		<rect x="1860.2" y="4154.2" transform="matrix(0.7071 0.7071 -0.7071 0.7071 3500.4905 -106.1698)" class="st4" width="36.4" height="36.4"/>
	
		<rect x="1909.6" y="4154.2" transform="matrix(0.7071 0.7071 -0.7071 0.7071 3514.9602 -141.1032)" class="st4" width="36.4" height="36.4"/>
	
		<rect x="1961.1" y="4154.2" transform="matrix(0.7071 0.7071 -0.7071 0.7071 3530.0305 -177.4857)" class="st4" width="36.4" height="36.4"/>
	
		<rect x="2009.3" y="4154.2" transform="matrix(0.7071 0.7071 -0.7071 0.7071 3544.1707 -211.6234)" class="st4" width="36.4" height="36.4"/>
	
		<rect x="2061.9" y="4154.2" transform="matrix(0.7071 0.7071 -0.7071 0.7071 3559.5703 -248.8017)" class="st4" width="36.4" height="36.4"/>
	
		<rect x="2113.2" y="4154.2" transform="matrix(0.7071 0.7071 -0.7071 0.7071 3574.5815 -285.042)" class="st4" width="36.4" height="36.4"/>
	
		<rect x="2162.6" y="4154.2" transform="matrix(0.7071 0.7071 -0.7071 0.7071 3589.0515 -319.9754)" class="st4" width="36.4" height="36.4"/>
	
		<rect x="2214" y="4154.2" transform="matrix(0.7071 0.7071 -0.7071 0.7071 3604.1216 -356.3579)" class="st4" width="36.4" height="36.4"/>
	
		<rect x="2262.3" y="4154.2" transform="matrix(0.7071 0.7071 -0.7071 0.7071 3618.262 -390.4956)" class="st4" width="36.4" height="36.4"/>
	
		<rect x="2314.9" y="4154.2" transform="matrix(0.7071 0.7071 -0.7071 0.7071 3633.6616 -427.6738)" class="st4" width="36.4" height="36.4"/>
	
		<rect x="2365.2" y="4154.2" transform="matrix(0.7071 0.7071 -0.7071 0.7071 3648.4023 -463.2607)" class="st4" width="36.4" height="36.4"/>
	
		<rect x="2414.6" y="4154.2" transform="matrix(0.7071 0.7071 -0.7071 0.7071 3662.8721 -498.1941)" class="st4" width="36.4" height="36.4"/>
	
		<rect x="2466.1" y="4154.2" transform="matrix(0.7071 0.7071 -0.7071 0.7071 3677.9424 -534.5766)" class="st4" width="36.4" height="36.4"/>
	
		<rect x="2514.3" y="4154.2" transform="matrix(0.7071 0.7071 -0.7071 0.7071 3692.0825 -568.7143)" class="st4" width="36.4" height="36.4"/>
	
		<rect x="2566.9" y="4154.2" transform="matrix(0.7071 0.7071 -0.7071 0.7071 3707.4822 -605.8925)" class="st4" width="36.4" height="36.4"/>
	
		<rect x="2619.1" y="4154.2" transform="matrix(0.7071 0.7071 -0.7071 0.7071 3722.7642 -642.7863)" class="st4" width="36.4" height="36.4"/>
	
		<rect x="2668.5" y="4154.2" transform="matrix(0.7071 0.7071 -0.7071 0.7071 3737.2341 -677.7197)" class="st4" width="36.4" height="36.4"/>
	
		<rect x="2720" y="4154.2" transform="matrix(0.7071 0.7071 -0.7071 0.7071 3752.3042 -714.1022)" class="st4" width="36.4" height="36.4"/>
	
		<rect x="2768.2" y="4154.2" transform="matrix(0.7071 0.7071 -0.7071 0.7071 3766.4446 -748.2399)" class="st4" width="36.4" height="36.4"/>
	
		<rect x="2820.8" y="4154.2" transform="matrix(0.7071 0.7071 -0.7071 0.7071 3781.8442 -785.4182)" class="st4" width="36.4" height="36.4"/>
	
		<rect x="2871.1" y="4154.2" transform="matrix(0.7071 0.7071 -0.7071 0.7071 3796.5847 -821.005)" class="st4" width="36.4" height="36.4"/>
	
		<rect x="2920.5" y="4154.2" transform="matrix(0.7071 0.7071 -0.7071 0.7071 3811.0547 -855.9384)" class="st4" width="36.4" height="36.4"/>
	
		<rect x="2972" y="4154.2" transform="matrix(0.7071 0.7071 -0.7071 0.7071 3826.1248 -892.3209)" class="st4" width="36.4" height="36.4"/>
	
		<rect x="3020.3" y="4154.2" transform="matrix(0.7071 0.7071 -0.7071 0.7071 3840.2651 -926.4586)" class="st4" width="36.4" height="36.4"/>
	
		<rect x="3072.9" y="4154.2" transform="matrix(0.7071 0.7071 -0.7071 0.7071 3855.6648 -963.6368)" class="st4" width="36.4" height="36.4"/>
	
		<rect x="3124.1" y="4154.2" transform="matrix(0.7071 0.7071 -0.7071 0.7071 3870.676 -999.8771)" class="st4" width="36.4" height="36.4"/>
	
		<rect x="3173.5" y="4154.2" transform="matrix(0.7071 0.7071 -0.7071 0.7071 3885.146 -1034.8105)" class="st4" width="36.4" height="36.4"/>
	
		<rect x="3225" y="4154.2" transform="matrix(0.7071 0.7071 -0.7071 0.7071 3900.2161 -1071.1931)" class="st4" width="36.4" height="36.4"/>
	
		<rect x="3273.2" y="4154.2" transform="matrix(0.7071 0.7071 -0.7071 0.7071 3914.3564 -1105.3308)" class="st4" width="36.4" height="36.4"/>
	
		<rect x="3325.8" y="4154.2" transform="matrix(0.7071 0.7071 -0.7071 0.7071 3929.7561 -1142.509)" class="st4" width="36.4" height="36.4"/>
	
		<rect x="3376.1" y="4154.2" transform="matrix(0.7071 0.7071 -0.7071 0.7071 3944.4966 -1178.0958)" class="st4" width="36.4" height="36.4"/>
	
		<rect x="3425.5" y="4154.2" transform="matrix(0.7071 0.7071 -0.7071 0.7071 3958.9666 -1213.0292)" class="st4" width="36.4" height="36.4"/>
	
		<rect x="3477" y="4154.2" transform="matrix(0.7071 0.7071 -0.7071 0.7071 3974.0366 -1249.4117)" class="st4" width="36.4" height="36.4"/>
	
		<rect x="3525.3" y="4154.2" transform="matrix(0.7071 0.7071 -0.7071 0.7071 3988.177 -1283.5494)" class="st4" width="36.4" height="36.4"/>
	
		<rect x="3577.9" y="4154.2" transform="matrix(0.7071 0.7071 -0.7071 0.7071 4003.5767 -1320.7277)" class="st4" width="36.4" height="36.4"/>
	
		<rect x="3628.2" y="4154.2" transform="matrix(0.7071 0.7071 -0.7071 0.7071 4018.3174 -1356.3146)" class="st4" width="36.4" height="36.4"/>
	
		<rect x="3677.6" y="4154.2" transform="matrix(0.7071 0.7071 -0.7071 0.7071 4032.7871 -1391.2479)" class="st4" width="36.4" height="36.4"/>
	
		<rect x="3729" y="4154.2" transform="matrix(0.7071 0.7071 -0.7071 0.7071 4047.8572 -1427.6305)" class="st4" width="36.4" height="36.4"/>
	
		<rect x="3777.3" y="4154.2" transform="matrix(0.7071 0.7071 -0.7071 0.7071 4061.9976 -1461.7682)" class="st4" width="36.4" height="36.4"/>
	
		<rect x="3829.9" y="4154.2" transform="matrix(0.7071 0.7071 -0.7071 0.7071 4077.3972 -1498.9464)" class="st4" width="36.4" height="36.4"/>
	
		<rect x="3880.2" y="4154.2" transform="matrix(0.7071 0.7071 -0.7071 0.7071 4092.1379 -1534.5332)" class="st4" width="36.4" height="36.4"/>
	
		<rect x="3929.6" y="4154.2" transform="matrix(0.7071 0.7071 -0.7071 0.7071 4106.6079 -1569.4667)" class="st4" width="36.4" height="36.4"/>
	
		<rect x="3981.1" y="4154.2" transform="matrix(0.7071 0.7071 -0.7071 0.7071 4121.6777 -1605.8492)" class="st4" width="36.4" height="36.4"/>
	
		<rect x="4029.4" y="4154.2" transform="matrix(0.7071 0.7071 -0.7071 0.7071 4135.8184 -1639.9869)" class="st4" width="36.4" height="36.4"/>
	
		<rect x="4081.9" y="4154.2" transform="matrix(0.7071 0.7071 -0.7071 0.7071 4151.2178 -1677.1652)" class="st4" width="36.4" height="36.4"/>
	
		<rect x="4133.2" y="4154.2" transform="matrix(0.7071 0.7071 -0.7071 0.7071 4166.229 -1713.4054)" class="st4" width="36.4" height="36.4"/>
	
		<rect x="4182.6" y="4154.2" transform="matrix(0.7071 0.7071 -0.7071 0.7071 4180.6992 -1748.3387)" class="st4" width="36.4" height="36.4"/>
	
		<rect x="4234" y="4154.2" transform="matrix(0.7071 0.7071 -0.7071 0.7071 4195.769 -1784.7213)" class="st4" width="36.4" height="36.4"/>
	
		<rect x="4282.3" y="4154.2" transform="matrix(0.7071 0.7071 -0.7071 0.7071 4209.9097 -1818.859)" class="st4" width="36.4" height="36.4"/>
	
		<rect x="4334.9" y="4154.2" transform="matrix(0.7071 0.7071 -0.7071 0.7071 4225.3091 -1856.0372)" class="st4" width="36.4" height="36.4"/>
	
		<rect x="4385.2" y="4154.2" transform="matrix(0.7071 0.7071 -0.7071 0.7071 4240.0498 -1891.6241)" class="st4" width="36.4" height="36.4"/>
	
		<rect x="4434.6" y="4154.2" transform="matrix(0.7071 0.7071 -0.7071 0.7071 4254.5195 -1926.5575)" class="st4" width="36.4" height="36.4"/>
	
		<rect x="4486.1" y="4154.2" transform="matrix(0.7071 0.7071 -0.7071 0.7071 4269.5898 -1962.9401)" class="st4" width="36.4" height="36.4"/>
	
		<rect x="4534.4" y="4154.2" transform="matrix(0.7071 0.7071 -0.7071 0.7071 4283.73 -1997.0778)" class="st4" width="36.4" height="36.4"/>
	
		<rect x="4586.9" y="4154.2" transform="matrix(0.7071 0.7071 -0.7071 0.7071 4299.1299 -2034.256)" class="st4" width="36.4" height="36.4"/>
	
		<rect x="4639.5" y="4154.2" transform="matrix(0.7071 0.7071 -0.7071 0.7071 4314.5293 -2071.4343)" class="st4" width="36.4" height="36.4"/>
	
		<rect x="4689.8" y="4154.2" transform="matrix(0.7071 0.7071 -0.7071 0.7071 4329.27 -2107.021)" class="st4" width="36.4" height="36.4"/>
	
		<rect x="4739.2" y="4154.2" transform="matrix(0.7071 0.7071 -0.7071 0.7071 4343.7397 -2141.9543)" class="st4" width="36.4" height="36.4"/>
	
		<rect x="4790.7" y="4154.2" transform="matrix(0.7071 0.7071 -0.7071 0.7071 4358.8101 -2178.3369)" class="st4" width="36.4" height="36.4"/>
	
		<rect x="4839" y="4154.2" transform="matrix(0.7071 0.7071 -0.7071 0.7071 4372.9502 -2212.4746)" class="st4" width="36.4" height="36.4"/>
	
		<rect x="4891.6" y="4154.2" transform="matrix(0.7071 0.7071 -0.7071 0.7071 4388.3501 -2249.6528)" class="st4" width="36.4" height="36.4"/>
	
		<rect x="4942.8" y="4154.2" transform="matrix(0.7071 0.7071 -0.7071 0.7071 4403.3613 -2285.8933)" class="st4" width="36.4" height="36.4"/>
	
		<rect x="4992.2" y="4154.2" transform="matrix(0.7071 0.7071 -0.7071 0.7071 4417.8311 -2320.8267)" class="st4" width="36.4" height="36.4"/>
	
		<rect x="5043.7" y="4154.2" transform="matrix(0.7071 0.7071 -0.7071 0.7071 4432.9014 -2357.2092)" class="st4" width="36.4" height="36.4"/>
	
		<rect x="5091.9" y="4154.2" transform="matrix(0.7071 0.7071 -0.7071 0.7071 4447.0415 -2391.3469)" class="st4" width="36.4" height="36.4"/>
	
		<rect x="5144.5" y="4154.2" transform="matrix(0.7071 0.7071 -0.7071 0.7071 4462.4414 -2428.5251)" class="st4" width="36.4" height="36.4"/>
	
		<rect x="5194.8" y="4154.2" transform="matrix(0.7071 0.7071 -0.7071 0.7071 4477.1821 -2464.1118)" class="st4" width="36.4" height="36.4"/>
	
		<rect x="5244.2" y="4154.2" transform="matrix(0.7071 0.7071 -0.7071 0.7071 4491.6519 -2499.0454)" class="st4" width="36.4" height="36.4"/>
	
		<rect x="5295.7" y="4154.2" transform="matrix(0.7071 0.7071 -0.7071 0.7071 4506.7222 -2535.4277)" class="st4" width="36.4" height="36.4"/>
	
		<rect x="5344" y="4154.2" transform="matrix(0.7071 0.7071 -0.7071 0.7071 4520.8623 -2569.5654)" class="st4" width="36.4" height="36.4"/>
	
		<rect x="5396.6" y="4154.2" transform="matrix(0.7071 0.7071 -0.7071 0.7071 4536.2622 -2606.7439)" class="st4" width="36.4" height="36.4"/>
	
		<rect x="548.8" y="465.7" transform="matrix(0.7071 0.7071 -0.7071 0.7071 508.2459 -259.1589)" class="st4" width="36.4" height="36.4"/>
	
		<rect x="599.1" y="465.7" transform="matrix(0.7071 0.7071 -0.7071 0.7071 522.9865 -294.7457)" class="st4" width="36.4" height="36.4"/>
	
		<rect x="648.5" y="465.7" transform="matrix(0.7071 0.7071 -0.7071 0.7071 537.4564 -329.6791)" class="st4" width="36.4" height="36.4"/>
	
		<rect x="699.9" y="465.7" transform="matrix(0.7071 0.7071 -0.7071 0.7071 552.5266 -366.0616)" class="st4" width="36.4" height="36.4"/>
	
		<rect x="748.2" y="465.7" transform="matrix(0.7071 0.7071 -0.7071 0.7071 566.6668 -400.1994)" class="st4" width="36.4" height="36.4"/>
	
		<rect x="800.8" y="465.7" transform="matrix(0.7071 0.7071 -0.7071 0.7071 582.0665 -437.3776)" class="st4" width="36.4" height="36.4"/>
	
		<rect x="851.1" y="465.7" transform="matrix(0.7071 0.7071 -0.7071 0.7071 596.8071 -472.9644)" class="st4" width="36.4" height="36.4"/>
	
		<rect x="900.5" y="465.7" transform="matrix(0.7071 0.7071 -0.7071 0.7071 611.277 -507.8978)" class="st4" width="36.4" height="36.4"/>
	
		<rect x="952" y="465.7" transform="matrix(0.7071 0.7071 -0.7071 0.7071 626.3471 -544.2804)" class="st4" width="36.4" height="36.4"/>
	
		<rect x="1000.3" y="465.7" transform="matrix(0.7071 0.7071 -0.7071 0.7071 640.4874 -578.4181)" class="st4" width="36.4" height="36.4"/>
	
		<rect x="1052.8" y="465.7" transform="matrix(0.7071 0.7071 -0.7071 0.7071 655.8871 -615.5963)" class="st4" width="36.4" height="36.4"/>
	
		<rect x="1104.1" y="465.7" transform="matrix(0.7071 0.7071 -0.7071 0.7071 670.8984 -651.8366)" class="st4" width="36.4" height="36.4"/>
	
		<rect x="1153.5" y="465.7" transform="matrix(0.7071 0.7071 -0.7071 0.7071 685.3683 -686.77)" class="st4" width="36.4" height="36.4"/>
	
		<rect x="1205" y="465.7" transform="matrix(0.7071 0.7071 -0.7071 0.7071 700.4384 -723.1525)" class="st4" width="36.4" height="36.4"/>
	
		<rect x="1253.2" y="465.7" transform="matrix(0.7071 0.7071 -0.7071 0.7071 714.5787 -757.2902)" class="st4" width="36.4" height="36.4"/>
	
		<rect x="1305.8" y="465.7" transform="matrix(0.7071 0.7071 -0.7071 0.7071 729.9785 -794.4684)" class="st4" width="36.4" height="36.4"/>
	
		<rect x="1356.1" y="465.7" transform="matrix(0.7071 0.7071 -0.7071 0.7071 744.719 -830.0553)" class="st4" width="36.4" height="36.4"/>
	
		<rect x="1405.5" y="465.7" transform="matrix(0.7071 0.7071 -0.7071 0.7071 759.1888 -864.9887)" class="st4" width="36.4" height="36.4"/>
	
		<rect x="1457" y="465.7" transform="matrix(0.7071 0.7071 -0.7071 0.7071 774.259 -901.3712)" class="st4" width="36.4" height="36.4"/>
	
		<rect x="1505.3" y="465.7" transform="matrix(0.7071 0.7071 -0.7071 0.7071 788.3993 -935.5089)" class="st4" width="36.4" height="36.4"/>
	
		<rect x="1557.8" y="465.7" transform="matrix(0.7071 0.7071 -0.7071 0.7071 803.799 -972.6871)" class="st4" width="36.4" height="36.4"/>
	
		<rect x="1608.2" y="465.7" transform="matrix(0.7071 0.7071 -0.7071 0.7071 818.5396 -1008.274)" class="st4" width="36.4" height="36.4"/>
	
		<rect x="1657.6" y="465.7" transform="matrix(0.7071 0.7071 -0.7071 0.7071 833.0095 -1043.2074)" class="st4" width="36.4" height="36.4"/>
	
		<rect x="1709" y="465.7" transform="matrix(0.7071 0.7071 -0.7071 0.7071 848.0796 -1079.59)" class="st4" width="36.4" height="36.4"/>
	
		<rect x="1757.3" y="465.7" transform="matrix(0.7071 0.7071 -0.7071 0.7071 862.2199 -1113.7277)" class="st4" width="36.4" height="36.4"/>
	
		<rect x="1809.9" y="465.7" transform="matrix(0.7071 0.7071 -0.7071 0.7071 877.6196 -1150.9059)" class="st4" width="36.4" height="36.4"/>
	
		<rect x="1860.2" y="465.7" transform="matrix(0.7071 0.7071 -0.7071 0.7071 892.3602 -1186.4927)" class="st4" width="36.4" height="36.4"/>
	
		<rect x="1909.6" y="465.7" transform="matrix(0.7071 0.7071 -0.7071 0.7071 906.8301 -1221.4261)" class="st4" width="36.4" height="36.4"/>
	
		<rect x="1961.1" y="465.7" transform="matrix(0.7071 0.7071 -0.7071 0.7071 921.9002 -1257.8086)" class="st4" width="36.4" height="36.4"/>
	
		<rect x="2009.3" y="465.7" transform="matrix(0.7071 0.7071 -0.7071 0.7071 936.0405 -1291.9463)" class="st4" width="36.4" height="36.4"/>
	
		<rect x="2061.9" y="465.7" transform="matrix(0.7071 0.7071 -0.7071 0.7071 951.4402 -1329.1246)" class="st4" width="36.4" height="36.4"/>
	
		<rect x="2113.2" y="465.7" transform="matrix(0.7071 0.7071 -0.7071 0.7071 966.4515 -1365.3649)" class="st4" width="36.4" height="36.4"/>
	
		<rect x="2162.6" y="465.7" transform="matrix(0.7071 0.7071 -0.7071 0.7071 980.9213 -1400.2982)" class="st4" width="36.4" height="36.4"/>
	
		<rect x="2214" y="465.7" transform="matrix(0.7071 0.7071 -0.7071 0.7071 995.9915 -1436.6808)" class="st4" width="36.4" height="36.4"/>
	
		<rect x="2262.3" y="465.7" transform="matrix(0.7071 0.7071 -0.7071 0.7071 1010.1318 -1470.8185)" class="st4" width="36.4" height="36.4"/>
	
		<rect x="2314.9" y="465.7" transform="matrix(0.7071 0.7071 -0.7071 0.7071 1025.5315 -1507.9967)" class="st4" width="36.4" height="36.4"/>
	
		<rect x="2365.2" y="465.7" transform="matrix(0.7071 0.7071 -0.7071 0.7071 1040.2721 -1543.5836)" class="st4" width="36.4" height="36.4"/>
	
		<rect x="2414.6" y="465.7" transform="matrix(0.7071 0.7071 -0.7071 0.7071 1054.7419 -1578.517)" class="st4" width="36.4" height="36.4"/>
	
		<rect x="2466.1" y="465.7" transform="matrix(0.7071 0.7071 -0.7071 0.7071 1069.8121 -1614.8995)" class="st4" width="36.4" height="36.4"/>
	
		<rect x="2514.3" y="465.7" transform="matrix(0.7071 0.7071 -0.7071 0.7071 1083.9524 -1649.0372)" class="st4" width="36.4" height="36.4"/>
	
		<rect x="2566.9" y="465.7" transform="matrix(0.7071 0.7071 -0.7071 0.7071 1099.3522 -1686.2155)" class="st4" width="36.4" height="36.4"/>
	
		<rect x="2619.1" y="465.7" transform="matrix(0.7071 0.7071 -0.7071 0.7071 1114.634 -1723.1091)" class="st4" width="36.4" height="36.4"/>
	
		<rect x="2668.5" y="465.7" transform="matrix(0.7071 0.7071 -0.7071 0.7071 1129.1039 -1758.0426)" class="st4" width="36.4" height="36.4"/>
	
		<rect x="2720" y="465.7" transform="matrix(0.7071 0.7071 -0.7071 0.7071 1144.1741 -1794.425)" class="st4" width="36.4" height="36.4"/>
	
		<rect x="2768.2" y="465.7" transform="matrix(0.7071 0.7071 -0.7071 0.7071 1158.3143 -1828.5627)" class="st4" width="36.4" height="36.4"/>
	
		<rect x="2820.8" y="465.7" transform="matrix(0.7071 0.7071 -0.7071 0.7071 1173.7141 -1865.741)" class="st4" width="36.4" height="36.4"/>
	
		<rect x="2871.1" y="465.7" transform="matrix(0.7071 0.7071 -0.7071 0.7071 1188.4546 -1901.3279)" class="st4" width="36.4" height="36.4"/>
	
		<rect x="2920.5" y="465.7" transform="matrix(0.7071 0.7071 -0.7071 0.7071 1202.9244 -1936.2612)" class="st4" width="36.4" height="36.4"/>
	
		<rect x="2972" y="465.7" transform="matrix(0.7071 0.7071 -0.7071 0.7071 1217.9946 -1972.6438)" class="st4" width="36.4" height="36.4"/>
	
		<rect x="3020.3" y="465.7" transform="matrix(0.7071 0.7071 -0.7071 0.7071 1232.1349 -2006.7815)" class="st4" width="36.4" height="36.4"/>
	
		<rect x="3072.9" y="465.7" transform="matrix(0.7071 0.7071 -0.7071 0.7071 1247.5347 -2043.9597)" class="st4" width="36.4" height="36.4"/>
	
		<rect x="3124.1" y="465.7" transform="matrix(0.7071 0.7071 -0.7071 0.7071 1262.5459 -2080.2)" class="st4" width="36.4" height="36.4"/>
	
		<rect x="3173.5" y="465.7" transform="matrix(0.7071 0.7071 -0.7071 0.7071 1277.0157 -2115.1333)" class="st4" width="36.4" height="36.4"/>
	
		<rect x="3225" y="465.7" transform="matrix(0.7071 0.7071 -0.7071 0.7071 1292.0859 -2151.5159)" class="st4" width="36.4" height="36.4"/>
	
		<rect x="3273.2" y="465.7" transform="matrix(0.7071 0.7071 -0.7071 0.7071 1306.2262 -2185.6536)" class="st4" width="36.4" height="36.4"/>
	
		<rect x="3325.8" y="465.7" transform="matrix(0.7071 0.7071 -0.7071 0.7071 1321.626 -2222.8318)" class="st4" width="36.4" height="36.4"/>
	
		<rect x="3376.1" y="465.7" transform="matrix(0.7071 0.7071 -0.7071 0.7071 1336.3665 -2258.4187)" class="st4" width="36.4" height="36.4"/>
	
		<rect x="3425.5" y="465.7" transform="matrix(0.7071 0.7071 -0.7071 0.7071 1350.8364 -2293.3521)" class="st4" width="36.4" height="36.4"/>
	
		<rect x="3477" y="465.7" transform="matrix(0.7071 0.7071 -0.7071 0.7071 1365.9065 -2329.7346)" class="st4" width="36.4" height="36.4"/>
	
		<rect x="3525.3" y="465.7" transform="matrix(0.7071 0.7071 -0.7071 0.7071 1380.0468 -2363.8723)" class="st4" width="36.4" height="36.4"/>
	
		<rect x="3577.9" y="465.7" transform="matrix(0.7071 0.7071 -0.7071 0.7071 1395.4465 -2401.0505)" class="st4" width="36.4" height="36.4"/>
	
		<rect x="3628.2" y="465.7" transform="matrix(0.7071 0.7071 -0.7071 0.7071 1410.1871 -2436.6375)" class="st4" width="36.4" height="36.4"/>
	
		<rect x="3677.6" y="465.7" transform="matrix(0.7071 0.7071 -0.7071 0.7071 1424.657 -2471.5708)" class="st4" width="36.4" height="36.4"/>
	
		<rect x="3729" y="465.7" transform="matrix(0.7071 0.7071 -0.7071 0.7071 1439.7272 -2507.9534)" class="st4" width="36.4" height="36.4"/>
	
		<rect x="3777.3" y="465.7" transform="matrix(0.7071 0.7071 -0.7071 0.7071 1453.8674 -2542.0911)" class="st4" width="36.4" height="36.4"/>
	
		<rect x="3829.9" y="465.7" transform="matrix(0.7071 0.7071 -0.7071 0.7071 1469.2671 -2579.2693)" class="st4" width="36.4" height="36.4"/>
	
		<rect x="3880.2" y="465.7" transform="matrix(0.7071 0.7071 -0.7071 0.7071 1484.0077 -2614.8562)" class="st4" width="36.4" height="36.4"/>
	
		<rect x="3929.6" y="465.7" transform="matrix(0.7071 0.7071 -0.7071 0.7071 1498.4775 -2649.7896)" class="st4" width="36.4" height="36.4"/>
	
		<rect x="3981.1" y="465.7" transform="matrix(0.7071 0.7071 -0.7071 0.7071 1513.5477 -2686.1721)" class="st4" width="36.4" height="36.4"/>
	
		<rect x="4029.4" y="465.7" transform="matrix(0.7071 0.7071 -0.7071 0.7071 1527.688 -2720.3098)" class="st4" width="36.4" height="36.4"/>
	
		<rect x="4081.9" y="465.7" transform="matrix(0.7071 0.7071 -0.7071 0.7071 1543.0878 -2757.488)" class="st4" width="36.4" height="36.4"/>
	
		<rect x="4133.2" y="465.7" transform="matrix(0.7071 0.7071 -0.7071 0.7071 1558.099 -2793.7283)" class="st4" width="36.4" height="36.4"/>
	
		<rect x="4182.6" y="465.7" transform="matrix(0.7071 0.7071 -0.7071 0.7071 1572.5688 -2828.6616)" class="st4" width="36.4" height="36.4"/>
	
		<rect x="4234" y="465.7" transform="matrix(0.7071 0.7071 -0.7071 0.7071 1587.639 -2865.0442)" class="st4" width="36.4" height="36.4"/>
	
		<rect x="4282.3" y="465.7" transform="matrix(0.7071 0.7071 -0.7071 0.7071 1601.7793 -2899.1819)" class="st4" width="36.4" height="36.4"/>
	
		<rect x="4334.9" y="465.7" transform="matrix(0.7071 0.7071 -0.7071 0.7071 1617.1791 -2936.3601)" class="st4" width="36.4" height="36.4"/>
	
		<rect x="4385.2" y="465.7" transform="matrix(0.7071 0.7071 -0.7071 0.7071 1631.9196 -2971.947)" class="st4" width="36.4" height="36.4"/>
	
		<rect x="4434.6" y="465.7" transform="matrix(0.7071 0.7071 -0.7071 0.7071 1646.3894 -3006.8804)" class="st4" width="36.4" height="36.4"/>
	
		<rect x="4486.1" y="465.7" transform="matrix(0.7071 0.7071 -0.7071 0.7071 1661.4596 -3043.2629)" class="st4" width="36.4" height="36.4"/>
	
		<rect x="4534.4" y="465.7" transform="matrix(0.7071 0.7071 -0.7071 0.7071 1675.5999 -3077.4006)" class="st4" width="36.4" height="36.4"/>
	
		<rect x="4586.9" y="465.7" transform="matrix(0.7071 0.7071 -0.7071 0.7071 1690.9996 -3114.5789)" class="st4" width="36.4" height="36.4"/>
	
		<rect x="4639.5" y="465.7" transform="matrix(0.7071 0.7071 -0.7071 0.7071 1706.3994 -3151.7571)" class="st4" width="36.4" height="36.4"/>
	
		<rect x="4689.8" y="465.7" transform="matrix(0.7071 0.7071 -0.7071 0.7071 1721.1399 -3187.344)" class="st4" width="36.4" height="36.4"/>
	
		<rect x="4739.2" y="465.7" transform="matrix(0.7071 0.7071 -0.7071 0.7071 1735.6097 -3222.2773)" class="st4" width="36.4" height="36.4"/>
	
		<rect x="4790.7" y="465.7" transform="matrix(0.7071 0.7071 -0.7071 0.7071 1750.6799 -3258.6599)" class="st4" width="36.4" height="36.4"/>
	
		<rect x="4839" y="465.7" transform="matrix(0.7071 0.7071 -0.7071 0.7071 1764.8202 -3292.7976)" class="st4" width="36.4" height="36.4"/>
	
		<rect x="4891.6" y="465.7" transform="matrix(0.7071 0.7071 -0.7071 0.7071 1780.22 -3329.9758)" class="st4" width="36.4" height="36.4"/>
	
		<rect x="4942.8" y="465.7" transform="matrix(0.7071 0.7071 -0.7071 0.7071 1795.2312 -3366.2161)" class="st4" width="36.4" height="36.4"/>
	
		<rect x="4992.2" y="465.7" transform="matrix(0.7071 0.7071 -0.7071 0.7071 1809.701 -3401.1494)" class="st4" width="36.4" height="36.4"/>
	
		<rect x="5043.7" y="465.7" transform="matrix(0.7071 0.7071 -0.7071 0.7071 1824.7712 -3437.532)" class="st4" width="36.4" height="36.4"/>
	
		<rect x="5091.9" y="465.7" transform="matrix(0.7071 0.7071 -0.7071 0.7071 1838.9115 -3471.6697)" class="st4" width="36.4" height="36.4"/>
	
		<rect x="5144.5" y="465.7" transform="matrix(0.7071 0.7071 -0.7071 0.7071 1854.3113 -3508.8479)" class="st4" width="36.4" height="36.4"/>
	
		<rect x="5194.8" y="465.7" transform="matrix(0.7071 0.7071 -0.7071 0.7071 1869.0518 -3544.4348)" class="st4" width="36.4" height="36.4"/>
	
		<rect x="5244.2" y="465.7" transform="matrix(0.7071 0.7071 -0.7071 0.7071 1883.5217 -3579.3682)" class="st4" width="36.4" height="36.4"/>
	
		<rect x="5295.7" y="465.7" transform="matrix(0.7071 0.7071 -0.7071 0.7071 1898.5918 -3615.7507)" class="st4" width="36.4" height="36.4"/>
	
		<rect x="5344" y="465.7" transform="matrix(0.7071 0.7071 -0.7071 0.7071 1912.7321 -3649.8884)" class="st4" width="36.4" height="36.4"/>
	
		<rect x="5396.6" y="465.7" transform="matrix(0.7071 0.7071 -0.7071 0.7071 1928.1318 -3687.0667)" class="st4" width="36.4" height="36.4"/>
	
		<rect x="5396.6" y="870.8" transform="matrix(-0.7071 0.7071 -0.7071 -0.7071 9872.1719 -2311.1904)" class="st4" width="36.4" height="36.4"/>
	
		<rect x="5396.6" y="920.2" transform="matrix(-0.7071 0.7071 -0.7071 -0.7071 9907.1055 -2226.8538)" class="st4" width="36.4" height="36.4"/>
	
		<rect x="5396.6" y="971.7" transform="matrix(-0.7071 0.7071 -0.7071 -0.7071 9943.4873 -2139.0183)" class="st4" width="36.4" height="36.4"/>
	
		<rect x="5396.6" y="1019.9" transform="matrix(-0.7071 0.7071 -0.7071 -0.7071 9977.625 -2056.6028)" class="st4" width="36.4" height="36.4"/>
	
		<rect x="5396.6" y="1072.5" transform="matrix(-0.7071 0.7071 -0.7071 -0.7071 10014.8037 -1966.8466)" class="st4" width="36.4" height="36.4"/>
	
		<rect x="5396.6" y="1122.8" transform="matrix(-0.7071 0.7071 -0.7071 -0.7071 10050.3906 -1880.9323)" class="st4" width="36.4" height="36.4"/>
	
		<rect x="5396.6" y="1172.2" transform="matrix(-0.7071 0.7071 -0.7071 -0.7071 10085.3242 -1796.5956)" class="st4" width="36.4" height="36.4"/>
	
		<rect x="5396.6" y="1223.7" transform="matrix(-0.7071 0.7071 -0.7071 -0.7071 10121.7061 -1708.7604)" class="st4" width="36.4" height="36.4"/>
	
		<rect x="5396.6" y="1272" transform="matrix(-0.7071 0.7071 -0.7071 -0.7071 10155.8438 -1626.3447)" class="st4" width="36.4" height="36.4"/>
	
		<rect x="5396.6" y="1324.6" transform="matrix(-0.7071 0.7071 -0.7071 -0.7071 10193.0225 -1536.5885)" class="st4" width="36.4" height="36.4"/>
	
		<rect x="5396.6" y="1376.7" transform="matrix(-0.7071 0.7071 -0.7071 -0.7071 10229.916 -1447.5192)" class="st4" width="36.4" height="36.4"/>
	
		<rect x="5396.6" y="1426.1" transform="matrix(-0.7071 0.7071 -0.7071 -0.7071 10264.8496 -1363.1825)" class="st4" width="36.4" height="36.4"/>
	
		<rect x="5396.6" y="1477.6" transform="matrix(-0.7071 0.7071 -0.7071 -0.7071 10301.2324 -1275.3473)" class="st4" width="36.4" height="36.4"/>
	
		<rect x="5396.6" y="465.7" transform="matrix(-0.7071 0.7071 -0.7071 -0.7071 9585.7432 -3002.6895)" class="st4" width="36.4" height="36.4"/>
	
		<rect x="5396.6" y="516.1" transform="matrix(-0.7071 0.7071 -0.7071 -0.7071 9621.3301 -2916.7754)" class="st4" width="36.4" height="36.4"/>
	
		<rect x="5396.6" y="565.5" transform="matrix(-0.7071 0.7071 -0.7071 -0.7071 9656.2637 -2832.4387)" class="st4" width="36.4" height="36.4"/>
	
		<rect x="5396.6" y="616.9" transform="matrix(-0.7071 0.7071 -0.7071 -0.7071 9692.6465 -2744.6035)" class="st4" width="36.4" height="36.4"/>
	
		<rect x="5396.6" y="665.2" transform="matrix(-0.7071 0.7071 -0.7071 -0.7071 9726.7842 -2662.1877)" class="st4" width="36.4" height="36.4"/>
	
		<rect x="5396.6" y="717.8" transform="matrix(-0.7071 0.7071 -0.7071 -0.7071 9763.9619 -2572.4316)" class="st4" width="36.4" height="36.4"/>
	
		<rect x="5396.6" y="770" transform="matrix(-0.7071 0.7071 -0.7071 -0.7071 9800.8555 -2483.3623)" class="st4" width="36.4" height="36.4"/>
	
		<rect x="5396.6" y="819.4" transform="matrix(-0.7071 0.7071 -0.7071 -0.7071 9835.7891 -2399.0256)" class="st4" width="36.4" height="36.4"/>
	
		<rect x="5396.6" y="1525.9" transform="matrix(-0.7071 0.7071 -0.7071 -0.7071 10335.3701 -1192.9316)" class="st4" width="36.4" height="36.4"/>
	
		<rect x="5396.6" y="1578.4" transform="matrix(-0.7071 0.7071 -0.7071 -0.7071 10372.5479 -1103.1754)" class="st4" width="36.4" height="36.4"/>
	
		<rect x="5396.6" y="1628.8" transform="matrix(-0.7071 0.7071 -0.7071 -0.7071 10408.1348 -1017.2612)" class="st4" width="36.4" height="36.4"/>
	
		<rect x="5396.6" y="1678.2" transform="matrix(-0.7071 0.7071 -0.7071 -0.7071 10443.0684 -932.9245)" class="st4" width="36.4" height="36.4"/>
	
		<rect x="5396.6" y="1729.6" transform="matrix(-0.7071 0.7071 -0.7071 -0.7071 10479.4512 -845.0893)" class="st4" width="36.4" height="36.4"/>
	
		<rect x="5396.6" y="1777.9" transform="matrix(-0.7071 0.7071 -0.7071 -0.7071 10513.5889 -762.6736)" class="st4" width="36.4" height="36.4"/>
	
		<rect x="5396.6" y="1830.5" transform="matrix(-0.7071 0.7071 -0.7071 -0.7071 10550.7666 -672.9174)" class="st4" width="36.4" height="36.4"/>
	
		<rect x="5396.6" y="1881.7" transform="matrix(-0.7071 0.7071 -0.7071 -0.7071 10587.0068 -585.4256)" class="st4" width="36.4" height="36.4"/>
	
		<rect x="5396.6" y="1931.1" transform="matrix(-0.7071 0.7071 -0.7071 -0.7071 10621.9404 -501.0889)" class="st4" width="36.4" height="36.4"/>
	
		<rect x="5396.6" y="1982.6" transform="matrix(-0.7071 0.7071 -0.7071 -0.7071 10658.3232 -413.2537)" class="st4" width="36.4" height="36.4"/>
	
		<rect x="5396.6" y="2030.9" transform="matrix(-0.7071 0.7071 -0.7071 -0.7071 10692.4609 -330.838)" class="st4" width="36.4" height="36.4"/>
	
		<rect x="5396.6" y="2083.4" transform="matrix(-0.7071 0.7071 -0.7071 -0.7071 10729.6387 -241.0818)" class="st4" width="36.4" height="36.4"/>
	
		<rect x="5396.6" y="2133.8" transform="matrix(-0.7071 0.7071 -0.7071 -0.7071 10765.2256 -155.1676)" class="st4" width="36.4" height="36.4"/>
	
		<rect x="5396.6" y="2183.2" transform="matrix(-0.7071 0.7071 -0.7071 -0.7071 10800.1592 -70.8309)" class="st4" width="36.4" height="36.4"/>
	
		<rect x="5396.6" y="2234.6" transform="matrix(-0.7071 0.7071 -0.7071 -0.7071 10836.542 17.0043)" class="st4" width="36.4" height="36.4"/>
	
		<rect x="5396.6" y="2282.9" transform="matrix(-0.7071 0.7071 -0.7071 -0.7071 10870.6797 99.42)" class="st4" width="36.4" height="36.4"/>
	
		<rect x="5396.6" y="2335.5" transform="matrix(-0.7071 0.7071 -0.7071 -0.7071 10907.8574 189.1762)" class="st4" width="36.4" height="36.4"/>
	
		<rect x="5396.6" y="2385.8" transform="matrix(-0.7071 0.7071 -0.7071 -0.7071 10943.4443 275.0905)" class="st4" width="36.4" height="36.4"/>
	
		<rect x="5396.6" y="2435.2" transform="matrix(-0.7071 0.7071 -0.7071 -0.7071 10978.3779 359.4271)" class="st4" width="36.4" height="36.4"/>
	
		<rect x="5396.6" y="2486.7" transform="matrix(-0.7071 0.7071 -0.7071 -0.7071 11014.7607 447.2624)" class="st4" width="36.4" height="36.4"/>
	
		<rect x="5396.6" y="2534.9" transform="matrix(-0.7071 0.7071 -0.7071 -0.7071 11048.8984 529.678)" class="st4" width="36.4" height="36.4"/>
	
		<rect x="5396.6" y="2587.5" transform="matrix(-0.7071 0.7071 -0.7071 -0.7071 11086.0762 619.4343)" class="st4" width="36.4" height="36.4"/>
	
		<rect x="5396.6" y="2637.9" transform="matrix(-0.7071 0.7071 -0.7071 -0.7071 11121.6631 705.3484)" class="st4" width="36.4" height="36.4"/>
	
		<rect x="5396.6" y="2687.3" transform="matrix(-0.7071 0.7071 -0.7071 -0.7071 11156.5967 789.6852)" class="st4" width="36.4" height="36.4"/>
	
		<rect x="5396.6" y="2738.7" transform="matrix(-0.7071 0.7071 -0.7071 -0.7071 11192.9795 877.5204)" class="st4" width="36.4" height="36.4"/>
	
		<rect x="5396.6" y="2787" transform="matrix(-0.7071 0.7071 -0.7071 -0.7071 11227.1172 959.936)" class="st4" width="36.4" height="36.4"/>
	
		<rect x="5396.6" y="2839.6" transform="matrix(-0.7071 0.7071 -0.7071 -0.7071 11264.2949 1049.6923)" class="st4" width="36.4" height="36.4"/>
	
		<rect x="5396.6" y="2890.8" transform="matrix(-0.7071 0.7071 -0.7071 -0.7071 11300.5352 1137.1841)" class="st4" width="36.4" height="36.4"/>
	
		<rect x="5396.6" y="2940.2" transform="matrix(-0.7071 0.7071 -0.7071 -0.7071 11335.4688 1221.5208)" class="st4" width="36.4" height="36.4"/>
	
		<rect x="5396.6" y="2991.7" transform="matrix(-0.7071 0.7071 -0.7071 -0.7071 11371.8516 1309.356)" class="st4" width="36.4" height="36.4"/>
	
		<rect x="5396.6" y="3040" transform="matrix(-0.7071 0.7071 -0.7071 -0.7071 11405.9893 1391.7716)" class="st4" width="36.4" height="36.4"/>
	
		<rect x="5396.6" y="3092.5" transform="matrix(-0.7071 0.7071 -0.7071 -0.7071 11443.167 1481.5278)" class="st4" width="36.4" height="36.4"/>
	
		<rect x="5396.6" y="3142.9" transform="matrix(-0.7071 0.7071 -0.7071 -0.7071 11478.7539 1567.442)" class="st4" width="36.4" height="36.4"/>
	
		<rect x="5396.6" y="3192.3" transform="matrix(-0.7071 0.7071 -0.7071 -0.7071 11513.6875 1651.7787)" class="st4" width="36.4" height="36.4"/>
	
		<rect x="5396.6" y="3243.7" transform="matrix(-0.7071 0.7071 -0.7071 -0.7071 11550.0703 1739.614)" class="st4" width="36.4" height="36.4"/>
	
		<rect x="5396.6" y="3292" transform="matrix(-0.7071 0.7071 -0.7071 -0.7071 11584.208 1822.0297)" class="st4" width="36.4" height="36.4"/>
	
		<rect x="5396.6" y="3344.6" transform="matrix(-0.7071 0.7071 -0.7071 -0.7071 11621.3857 1911.7859)" class="st4" width="36.4" height="36.4"/>
	
		<rect x="5396.6" y="3397.1" transform="matrix(-0.7071 0.7071 -0.7071 -0.7071 11658.5645 2001.5421)" class="st4" width="36.4" height="36.4"/>
	
		<rect x="5396.6" y="3447.5" transform="matrix(-0.7071 0.7071 -0.7071 -0.7071 11694.1514 2087.4563)" class="st4" width="36.4" height="36.4"/>
	
		<rect x="5396.6" y="3496.9" transform="matrix(-0.7071 0.7071 -0.7071 -0.7071 11729.084 2171.793)" class="st4" width="36.4" height="36.4"/>
	
		<rect x="5396.6" y="3548.3" transform="matrix(-0.7071 0.7071 -0.7071 -0.7071 11765.4668 2259.6282)" class="st4" width="36.4" height="36.4"/>
	
		<rect x="5396.6" y="3596.6" transform="matrix(-0.7071 0.7071 -0.7071 -0.7071 11799.6045 2342.0439)" class="st4" width="36.4" height="36.4"/>
	
		<rect x="5396.6" y="3649.2" transform="matrix(-0.7071 0.7071 -0.7071 -0.7071 11836.7832 2431.8)" class="st4" width="36.4" height="36.4"/>
	
		<rect x="5396.6" y="3700.4" transform="matrix(-0.7071 0.7071 -0.7071 -0.7071 11873.0234 2519.2917)" class="st4" width="36.4" height="36.4"/>
	
		<rect x="5396.6" y="3749.8" transform="matrix(-0.7071 0.7071 -0.7071 -0.7071 11907.9561 2603.6284)" class="st4" width="36.4" height="36.4"/>
	
		<rect x="5396.6" y="3801.3" transform="matrix(-0.7071 0.7071 -0.7071 -0.7071 11944.3389 2691.4639)" class="st4" width="36.4" height="36.4"/>
	
		<rect x="5396.6" y="3849.6" transform="matrix(-0.7071 0.7071 -0.7071 -0.7071 11978.4766 2773.8794)" class="st4" width="36.4" height="36.4"/>
	
		<rect x="5396.6" y="3902.2" transform="matrix(-0.7071 0.7071 -0.7071 -0.7071 12015.6553 2863.6357)" class="st4" width="36.4" height="36.4"/>
	
		<rect x="5396.6" y="3952.5" transform="matrix(-0.7071 0.7071 -0.7071 -0.7071 12051.2422 2949.5498)" class="st4" width="36.4" height="36.4"/>
	
		<rect x="5396.6" y="4001.9" transform="matrix(-0.7071 0.7071 -0.7071 -0.7071 12086.1748 3033.8865)" class="st4" width="36.4" height="36.4"/>
	
		<rect x="5396.6" y="4053.3" transform="matrix(-0.7071 0.7071 -0.7071 -0.7071 12122.5576 3121.7217)" class="st4" width="36.4" height="36.4"/>
	
		<rect x="5396.6" y="4101.6" transform="matrix(-0.7071 0.7071 -0.7071 -0.7071 12156.6953 3204.1375)" class="st4" width="36.4" height="36.4"/>
	
		<rect x="548.8" y="870.8" transform="matrix(-0.7071 0.7071 -0.7071 -0.7071 1596.4703 1116.7174)" class="st4" width="36.4" height="36.4"/>
	
		<rect x="548.8" y="920.2" transform="matrix(-0.7071 0.7071 -0.7071 -0.7071 1631.4038 1201.0541)" class="st4" width="36.4" height="36.4"/>
	
		<rect x="548.8" y="971.7" transform="matrix(-0.7071 0.7071 -0.7071 -0.7071 1667.7863 1288.8894)" class="st4" width="36.4" height="36.4"/>
	
		<rect x="548.8" y="1019.9" transform="matrix(-0.7071 0.7071 -0.7071 -0.7071 1701.924 1371.3051)" class="st4" width="36.4" height="36.4"/>
	
		<rect x="548.8" y="1072.5" transform="matrix(-0.7071 0.7071 -0.7071 -0.7071 1739.1023 1461.0613)" class="st4" width="36.4" height="36.4"/>
	
		<rect x="548.8" y="1122.8" transform="matrix(-0.7071 0.7071 -0.7071 -0.7071 1774.6891 1546.9755)" class="st4" width="36.4" height="36.4"/>
	
		<rect x="548.8" y="1172.2" transform="matrix(-0.7071 0.7071 -0.7071 -0.7071 1809.6224 1631.3121)" class="st4" width="36.4" height="36.4"/>
	
		<rect x="548.8" y="1223.7" transform="matrix(-0.7071 0.7071 -0.7071 -0.7071 1846.005 1719.1473)" class="st4" width="36.4" height="36.4"/>
	
		<rect x="548.8" y="1272" transform="matrix(-0.7071 0.7071 -0.7071 -0.7071 1880.1427 1801.5631)" class="st4" width="36.4" height="36.4"/>
	
		<rect x="548.8" y="1324.6" transform="matrix(-0.7071 0.7071 -0.7071 -0.7071 1917.3209 1891.3192)" class="st4" width="36.4" height="36.4"/>
	
		<rect x="548.8" y="1376.7" transform="matrix(-0.7071 0.7071 -0.7071 -0.7071 1954.2147 1980.3885)" class="st4" width="36.4" height="36.4"/>
	
		<rect x="548.8" y="1426.1" transform="matrix(-0.7071 0.7071 -0.7071 -0.7071 1989.1481 2064.7253)" class="st4" width="36.4" height="36.4"/>
	
		<rect x="548.8" y="1477.6" transform="matrix(-0.7071 0.7071 -0.7071 -0.7071 2025.5306 2152.5605)" class="st4" width="36.4" height="36.4"/>
	
		<rect x="548.8" y="516.1" transform="matrix(-0.7071 0.7071 -0.7071 -0.7071 1345.6288 511.1324)" class="st4" width="36.4" height="36.4"/>
	
		<rect x="548.8" y="565.5" transform="matrix(-0.7071 0.7071 -0.7071 -0.7071 1380.5623 595.4691)" class="st4" width="36.4" height="36.4"/>
	
		<rect x="548.8" y="616.9" transform="matrix(-0.7071 0.7071 -0.7071 -0.7071 1416.9448 683.3043)" class="st4" width="36.4" height="36.4"/>
	
		<rect x="548.8" y="665.2" transform="matrix(-0.7071 0.7071 -0.7071 -0.7071 1451.0825 765.72)" class="st4" width="36.4" height="36.4"/>
	
		<rect x="548.8" y="717.8" transform="matrix(-0.7071 0.7071 -0.7071 -0.7071 1488.2607 855.4763)" class="st4" width="36.4" height="36.4"/>
	
		<rect x="548.8" y="770" transform="matrix(-0.7071 0.7071 -0.7071 -0.7071 1525.1544 944.5455)" class="st4" width="36.4" height="36.4"/>
	
		<rect x="548.8" y="819.4" transform="matrix(-0.7071 0.7071 -0.7071 -0.7071 1560.0878 1028.8822)" class="st4" width="36.4" height="36.4"/>
	
		<rect x="548.8" y="1525.9" transform="matrix(-0.7071 0.7071 -0.7071 -0.7071 2059.6682 2234.9761)" class="st4" width="36.4" height="36.4"/>
	
		<rect x="548.8" y="1578.4" transform="matrix(-0.7071 0.7071 -0.7071 -0.7071 2096.8464 2324.7324)" class="st4" width="36.4" height="36.4"/>
	
		<rect x="548.8" y="1628.8" transform="matrix(-0.7071 0.7071 -0.7071 -0.7071 2132.4333 2410.6467)" class="st4" width="36.4" height="36.4"/>
	
		<rect x="548.8" y="1678.2" transform="matrix(-0.7071 0.7071 -0.7071 -0.7071 2167.3667 2494.9834)" class="st4" width="36.4" height="36.4"/>
	
		<rect x="548.8" y="1729.6" transform="matrix(-0.7071 0.7071 -0.7071 -0.7071 2203.7493 2582.8186)" class="st4" width="36.4" height="36.4"/>
	
		<rect x="548.8" y="1777.9" transform="matrix(-0.7071 0.7071 -0.7071 -0.7071 2237.887 2665.2341)" class="st4" width="36.4" height="36.4"/>
	
		<rect x="548.8" y="1830.5" transform="matrix(-0.7071 0.7071 -0.7071 -0.7071 2275.0652 2754.9905)" class="st4" width="36.4" height="36.4"/>
	
		<rect x="548.8" y="1881.7" transform="matrix(-0.7071 0.7071 -0.7071 -0.7071 2311.3054 2842.4822)" class="st4" width="36.4" height="36.4"/>
	
		<rect x="548.8" y="1931.1" transform="matrix(-0.7071 0.7071 -0.7071 -0.7071 2346.239 2926.8188)" class="st4" width="36.4" height="36.4"/>
	
		<rect x="548.8" y="1982.6" transform="matrix(-0.7071 0.7071 -0.7071 -0.7071 2382.6213 3014.6541)" class="st4" width="36.4" height="36.4"/>
	
		<rect x="548.8" y="2030.9" transform="matrix(-0.7071 0.7071 -0.7071 -0.7071 2416.7593 3097.0698)" class="st4" width="36.4" height="36.4"/>
	
		<rect x="548.8" y="2083.4" transform="matrix(-0.7071 0.7071 -0.7071 -0.7071 2453.9375 3186.8259)" class="st4" width="36.4" height="36.4"/>
	
		<rect x="548.8" y="2133.8" transform="matrix(-0.7071 0.7071 -0.7071 -0.7071 2489.5242 3272.7402)" class="st4" width="36.4" height="36.4"/>
	
		<rect x="548.8" y="2183.2" transform="matrix(-0.7071 0.7071 -0.7071 -0.7071 2524.4575 3357.0769)" class="st4" width="36.4" height="36.4"/>
	
		<rect x="548.8" y="2234.6" transform="matrix(-0.7071 0.7071 -0.7071 -0.7071 2560.8401 3444.9121)" class="st4" width="36.4" height="36.4"/>
	
		<rect x="548.8" y="2282.9" transform="matrix(-0.7071 0.7071 -0.7071 -0.7071 2594.9778 3527.3279)" class="st4" width="36.4" height="36.4"/>
	
		<rect x="548.8" y="2335.5" transform="matrix(-0.7071 0.7071 -0.7071 -0.7071 2632.156 3617.084)" class="st4" width="36.4" height="36.4"/>
	
		<rect x="548.8" y="2385.8" transform="matrix(-0.7071 0.7071 -0.7071 -0.7071 2667.7429 3702.9983)" class="st4" width="36.4" height="36.4"/>
	
		<rect x="548.8" y="2435.2" transform="matrix(-0.7071 0.7071 -0.7071 -0.7071 2702.6763 3787.335)" class="st4" width="36.4" height="36.4"/>
	
		<rect x="548.8" y="2486.7" transform="matrix(-0.7071 0.7071 -0.7071 -0.7071 2739.0588 3875.1702)" class="st4" width="36.4" height="36.4"/>
	
		<rect x="548.8" y="2534.9" transform="matrix(-0.7071 0.7071 -0.7071 -0.7071 2773.1965 3957.5859)" class="st4" width="36.4" height="36.4"/>
	
		<rect x="548.8" y="2587.5" transform="matrix(-0.7071 0.7071 -0.7071 -0.7071 2810.3748 4047.342)" class="st4" width="36.4" height="36.4"/>
	
		<rect x="548.8" y="2637.9" transform="matrix(-0.7071 0.7071 -0.7071 -0.7071 2845.9617 4133.2563)" class="st4" width="36.4" height="36.4"/>
	
		<rect x="548.8" y="2687.3" transform="matrix(-0.7071 0.7071 -0.7071 -0.7071 2880.895 4217.5928)" class="st4" width="36.4" height="36.4"/>
	
		<rect x="548.8" y="2738.7" transform="matrix(-0.7071 0.7071 -0.7071 -0.7071 2917.2776 4305.4282)" class="st4" width="36.4" height="36.4"/>
	
		<rect x="548.8" y="2787" transform="matrix(-0.7071 0.7071 -0.7071 -0.7071 2951.4153 4387.8438)" class="st4" width="36.4" height="36.4"/>
	
		<rect x="548.8" y="2839.6" transform="matrix(-0.7071 0.7071 -0.7071 -0.7071 2988.5935 4477.6001)" class="st4" width="36.4" height="36.4"/>
	
		<rect x="548.8" y="2890.8" transform="matrix(-0.7071 0.7071 -0.7071 -0.7071 3024.8337 4565.0918)" class="st4" width="36.4" height="36.4"/>
	
		<rect x="548.8" y="2940.2" transform="matrix(-0.7071 0.7071 -0.7071 -0.7071 3059.7671 4649.4287)" class="st4" width="36.4" height="36.4"/>
	
		<rect x="548.8" y="2991.7" transform="matrix(-0.7071 0.7071 -0.7071 -0.7071 3096.1497 4737.2637)" class="st4" width="36.4" height="36.4"/>
	
		<rect x="548.8" y="3040" transform="matrix(-0.7071 0.7071 -0.7071 -0.7071 3130.2874 4819.6792)" class="st4" width="36.4" height="36.4"/>
	
		<rect x="548.8" y="3092.5" transform="matrix(-0.7071 0.7071 -0.7071 -0.7071 3167.4656 4909.4355)" class="st4" width="36.4" height="36.4"/>
	
		<rect x="548.8" y="3142.9" transform="matrix(-0.7071 0.7071 -0.7071 -0.7071 3203.0525 4995.3496)" class="st4" width="36.4" height="36.4"/>
	
		<rect x="548.8" y="3192.3" transform="matrix(-0.7071 0.7071 -0.7071 -0.7071 3237.9858 5079.6865)" class="st4" width="36.4" height="36.4"/>
	
		<rect x="548.8" y="3243.7" transform="matrix(-0.7071 0.7071 -0.7071 -0.7071 3274.3684 5167.522)" class="st4" width="36.4" height="36.4"/>
	
		<rect x="548.8" y="3292" transform="matrix(-0.7071 0.7071 -0.7071 -0.7071 3308.5061 5249.9375)" class="st4" width="36.4" height="36.4"/>
	
		<rect x="548.8" y="3344.6" transform="matrix(-0.7071 0.7071 -0.7071 -0.7071 3345.6843 5339.6938)" class="st4" width="36.4" height="36.4"/>
	
		<rect x="548.8" y="3397.1" transform="matrix(-0.7071 0.7071 -0.7071 -0.7071 3382.8625 5429.4497)" class="st4" width="36.4" height="36.4"/>
	
		<rect x="548.8" y="3447.5" transform="matrix(-0.7071 0.7071 -0.7071 -0.7071 3418.4495 5515.3643)" class="st4" width="36.4" height="36.4"/>
	
		<rect x="548.8" y="3496.9" transform="matrix(-0.7071 0.7071 -0.7071 -0.7071 3453.3828 5599.7007)" class="st4" width="36.4" height="36.4"/>
	
		<rect x="548.8" y="3548.3" transform="matrix(-0.7071 0.7071 -0.7071 -0.7071 3489.7654 5687.5361)" class="st4" width="36.4" height="36.4"/>
	
		<rect x="548.8" y="3596.6" transform="matrix(-0.7071 0.7071 -0.7071 -0.7071 3523.9031 5769.9517)" class="st4" width="36.4" height="36.4"/>
	
		<rect x="548.8" y="3649.2" transform="matrix(-0.7071 0.7071 -0.7071 -0.7071 3561.0813 5859.708)" class="st4" width="36.4" height="36.4"/>
	
		<rect x="548.8" y="3700.4" transform="matrix(-0.7071 0.7071 -0.7071 -0.7071 3597.3215 5947.1997)" class="st4" width="36.4" height="36.4"/>
	
		<rect x="548.8" y="3749.8" transform="matrix(-0.7071 0.7071 -0.7071 -0.7071 3632.2549 6031.5361)" class="st4" width="36.4" height="36.4"/>
	
		<rect x="548.8" y="3801.3" transform="matrix(-0.7071 0.7071 -0.7071 -0.7071 3668.6375 6119.3716)" class="st4" width="36.4" height="36.4"/>
	
		<rect x="548.8" y="3849.6" transform="matrix(-0.7071 0.7071 -0.7071 -0.7071 3702.7751 6201.7871)" class="st4" width="36.4" height="36.4"/>
	
		<rect x="548.8" y="3902.2" transform="matrix(-0.7071 0.7071 -0.7071 -0.7071 3739.9534 6291.5435)" class="st4" width="36.4" height="36.4"/>
	
		<rect x="548.8" y="3952.5" transform="matrix(-0.7071 0.7071 -0.7071 -0.7071 3775.5403 6377.4575)" class="st4" width="36.4" height="36.4"/>
	
		<rect x="548.8" y="4001.9" transform="matrix(-0.7071 0.7071 -0.7071 -0.7071 3810.4736 6461.7944)" class="st4" width="36.4" height="36.4"/>
	
		<rect x="548.8" y="4053.3" transform="matrix(-0.7071 0.7071 -0.7071 -0.7071 3846.8562 6549.6294)" class="st4" width="36.4" height="36.4"/>
	
		<rect x="548.8" y="4101.6" transform="matrix(-0.7071 0.7071 -0.7071 -0.7071 3880.9939 6632.0454)" class="st4" width="36.4" height="36.4"/>
</g>
<g id="floor_shadows">
	<polygon class="st5" points="2578,3038.1 2554.4,3011.3 2387.3,3024.7 2072.2,3099.6 1640.5,3140.5 1561.7,3157.9 1204,3258.7 
		1153.6,3277.6 1196.1,3318.6 1234,3326.5 1311.2,3410 1692.5,3424.2 1711.4,3463.5 2578,3455.7 2929.4,3427.3 3116.9,3427.3 
		3283.9,3389.5 3372.1,3353.2 3405.2,3381.6 3447.8,3386.3 3473,3413.1 3450.9,3438.3 3663.6,3532.9 3922,3532.9 4147.3,3491.9 
		4197.8,3517.1 4352.2,3474.6 4405.7,3463.5 4415.2,3433.6 4375.8,3394.2 4363.2,3375.3 4292.3,3380 4013.4,3367.4 3753.4,3282.3 
		3551.7,3197.3 3430.4,3194.1 3356.4,3195.7 3173.6,3197.3 3156.3,3135.8 3217.7,3090.1 3293.3,3060.2 3329.6,3011.3 3222.4,2998.7 
		2890,3146.8 2699.9,3216.2 2116.3,3176.8 2234.5,3123.2 2384.2,3060.2 2426.7,3047.6 2519.7,3053.9 	"/>
	<path class="st5" d="M1673.6,3370.6h7.9h698l572,20.5l278.9-20.5l115-18.9l102.4,34.7l127.6,36.2l152.8,9.5l368.7-22.1l89.8-18.1
		l83.3-12.8l20.7-13.2l-37.8-42.5l-37.8-45.7l-255.3,6.3l-124.5-25.2l-59.9,7.1l-237.9-95.3l-132.4,9.5l-48.8,1.6l-132.3,15.3
		l-12.6-62.6l151.3-83.5l-146.5-34.7c0,0-565.7,140.2-565.7,145s-255.3-11-255.3-11l-91.4-11l-80.4,3.2l11-18.9l169.6-68.9
		l79.3-19.3l-50.3-13.9l-253.8,43.9l-239.5,25.2l-242.7,3.2l-165.4,26.8l-253.7,52l-146.5,42.5l-15.8,17.3l126.1,56.7l53.6,29.9
		l367.1,36.2L1673.6,3370.6z"/>
</g>
<g id="Camel_outline">
	<g>
		<path class="st1" d="M3816.6,2374.4h-54l-142.4,2.5l-70.6,92.4L3449,2626.8l-97.4,622l64.4,17.2l34.2,34.6v35.9h-87l-38.9-28.2
			l-4.5,9.9l-74.9-56.2L3129,2378.2l-75.4-91l-685.9,54.8l138.9,632.9l76.6,38.3l4.1,17.6c0,0-107.7,7.3-112.9,7.3
			c-5.2,0-60.1-44.5-60.1-44.5L2238.4,2730l1.8,32.5l62.5,504.6l47.5,9.6l29,14.5v19l-115,8l-24.1-51l-250.8-491.4l-156.2-351.9
			l-16-32l-85.5-13.6l-39.5,115l-26.1,140.8l11.3,213.7l5.8,36.9l-41.4-38.8V2342l100.8-99.1l-100.8-201.4v-85.3l465.5-669.8
			l77.6-56.9l418.3,224.7l283.8-315.2l77.6-15.5l747.5,619.4l-11.3,45.1l51.2-14.1l35.8,22l6.9,82.2h108.7l47.1-269.7l283.2-469.4
			l55.9,6.1l15.8-21.6h34.9l49.4,136.5l293.9,59.4l182.3,133.8l-13.6,87.3l-184.6-66.6l-5.4,53l-166.8,25.2l-90.3-53.8l-93.8,95.7
			l-8,353.8L3816.6,2374.4"/>
	</g>
</g>
<g id="folding_shadows">
	<polygon class="st6" points="1762.1,2383.1 1742.6,2242.9 1817.1,2391.8 	"/>
	<polygon class="st6" points="1692.1,2353.3 1709.3,2443.1 1692.1,2493.2 	"/>
	<polygon class="st6" points="2287.8,2391.8 2415.4,2994.4 2324.7,2859.2 	"/>
	<polygon class="st6" points="3116.4,2282.2 3129,2378.2 3053.5,2287.2 2964.5,1123.4 	"/>
	<polygon class="st6" points="1833.1,2423.8 2255.1,3079.2 2240.2,3267.1 1998.4,2802.6 	"/>
	<polygon class="st6" points="2318.9,2320.6 2274.9,1825.9 2264.1,1825.9 2297.3,2320.6 2277.2,2320.6 2107.2,1286.4 2216.3,2320.6 
		2223,2451 2321.1,2345.8 	"/>
	<polygon class="st6" points="3351.6,3248.8 3337.9,3318.1 3324.3,3308.2 	"/>
	<polygon class="st6" points="4311.4,1593.9 4239.1,1458.2 4340.3,1123.4 4274.4,1420.2 	"/>
	<polygon class="st6" points="4405.2,1498.2 4370.3,1533.8 4274.4,1420.2 	"/>
	<polygon class="st6" points="3903.3,1878 3776.6,2374.4 3816.6,2374.4 	"/>
	<polygon class="st6" points="4389.7,1260 4414.1,1264.9 4495.5,1552.1 	"/>
	<polygon class="st6" points="3750.3,1774.3 3669.7,1912.5 3726.1,1894.2 	"/>
	<polygon class="st6" points="3623.4,2097.9 3584.5,2378.2 3549.6,2465.8 3549.6,2378.2 	"/>
	<polygon class="st6" points="2603.1,1454.1 2274.9,1825.9 2264.1,1825.9 2587.3,1445.6 	"/>
	<polygon class="st6" points="4289.6,1145.1 3950.4,1608.3 4274.4,1143.4 	"/>
	<polygon class="st6" points="4683.6,1319.3 4646.8,1477 4662.3,1526.9 	"/>
</g>
<g id="Text">
	<g>
		<path class="st7" d="M2484.6,3749.1h65.2l64.4,94.8l64.1-94.8h65.2v247h-78.9v-88.9l-50.4,74.1l-50.7-74.1v88.9h-78.9V3749.1z
			 M2531.2,3966.5v-170l83,120.7l82.6-120.7v170h9.6v-187.8h-9.6l-82.6,121.9l-83-121.9h-9.6v187.8H2531.2z"/>
		<path class="st7" d="M2769.4,3749.1h83.7v247h-83.7V3749.1z M2816.1,3966.5v-187.8h-9.6v187.8H2816.1z"/>
		<path class="st7" d="M2879,3749.1h85.2c15.8,0,30.4,2.1,43.9,6.3c13.5,4.2,25.1,10.4,35,18.5c9.9,8.1,17.6,18.2,23.1,30.2
			c5.6,12,8.3,25.7,8.3,41.3c0,12.3-1.7,22.8-5.2,31.5c-3.5,8.6-7.3,15.8-11.5,21.5c-4.9,6.4-10.5,11.9-16.7,16.3l46.3,81.5H2995
			l-37-62.6v62.6H2879V3749.1z M2956.1,3910.2c9.6,0,19-1,28.1-3l35.2,59.3h11.5l-37-62.2c13.3-4.7,23.9-11.9,31.9-21.7
			c7.9-9.8,11.9-22.4,11.9-38c0-10.9-2.1-20.4-6.3-28.5c-4.2-8.1-9.9-15-17.2-20.6c-7.3-5.6-15.9-9.8-25.7-12.6
			c-9.9-2.8-20.6-4.3-32.2-4.3h-40v187.8h9.6v-56.3H2956.1z M2925.7,3901.3v-113.7h30.4c22.5,0,40.1,4.9,52.8,14.8
			c12.7,9.9,19.1,24,19.1,42.2c0,18.3-6.4,32.3-19.1,42c-12.7,9.8-30.3,14.6-52.8,14.6H2925.7z M2957.9,3870.6h4.1
			c9.4,0,17.3-2.1,23.9-6.3c6.5-4.2,9.8-11.2,9.8-21.1c0-9.9-3.3-16.9-9.8-21.1c-6.5-4.2-14.5-6.3-23.9-6.3h-4.1V3870.6z"/>
		<path class="st7" d="M3185,3749.1h59.3l93.7,247h-77.8l-8.1-22.2h-74.8l-8.1,22.2h-77.8L3185,3749.1z M3146.4,3966.5l7-18.5h122.2
			l7,18.5h10.4l-71.5-187.8h-14.1l-71.5,187.8H3146.4z M3214.6,3787.6l57.8,151.5h-115.6L3214.6,3787.6z M3231.3,3919.5l-16.7-43.3
			l-16.7,43.3H3231.3z"/>
		<path class="st7" d="M3482.4,3833.2c-4.4-3.9-10-7-16.7-9.1c-6.7-2.1-13.2-3.1-19.6-3.1c-7.2,0-13.7,1.3-19.6,3.9
			s-11.1,6.2-15.4,10.7c-4.3,4.6-7.7,10.1-10.2,16.5c-2.5,6.4-3.7,13.3-3.7,20.7c0,7.4,1.4,14.3,4.1,20.7
			c2.7,6.4,6.4,11.9,11.1,16.5c4.7,4.6,10.2,8.1,16.5,10.7s13,3.9,20.2,3.9c8.4,0,16-1.8,23-5.4c6.9-3.6,12.8-8.5,17.8-14.6h-22.2
			v-51.9h95.2v82.2c-5.7,10.1-12.5,19.3-20.4,27.6c-7.9,8.3-16.7,15.4-26.5,21.3c-9.8,5.9-20.3,10.5-31.7,13.7
			c-11.4,3.2-23.1,4.8-35.2,4.8c-17.8,0-34.6-3.3-50.4-10c-15.8-6.7-29.6-15.8-41.3-27.4c-11.7-11.6-21-25.3-27.8-41.1
			c-6.8-15.8-10.2-32.8-10.2-51.1c0-17.8,3.2-34.6,9.6-50.4c6.4-15.8,15.2-29.6,26.5-41.3c11.2-11.7,24.6-21,40-27.8
			c15.4-6.8,32-10.2,49.8-10.2c13.8,0,25.8,1.4,35.9,4.1c10.1,2.7,18.6,5.8,25.6,9.3c8.1,4,14.9,8.3,20.4,13L3482.4,3833.2z
			 M3486.1,3785.4c-3.2-1.5-6.8-2.7-10.7-3.7c-3.5-1-7.5-1.9-12.2-2.6c-4.7-0.7-9.9-1.1-15.6-1.1c-13.1,0-25.3,2.3-36.7,7
			c-11.4,4.7-21.2,11.2-29.6,19.4c-8.4,8.3-15,18.2-19.8,29.8c-4.8,11.6-7.2,24.4-7.2,38.5c0,14.1,2.5,26.9,7.4,38.5
			c4.9,11.6,11.7,21.5,20.4,29.8c8.6,8.3,18.7,14.8,30.2,19.4c11.5,4.7,23.8,7,36.9,7c17,0,32.5-4,46.3-12c13.8-8,25.1-18.7,33.7-32
			V3875h-39.3v8.9h29.6v37c-7.7,11.4-17.6,20.4-29.8,27c-12.2,6.7-25.7,10-40.6,10c-11.9,0-22.9-2-33.1-6.1
			c-10.2-4.1-19.3-9.9-27-17.4c-7.8-7.5-13.9-16.5-18.3-27c-4.4-10.5-6.7-22-6.7-34.6s2.2-24.1,6.5-34.6c4.3-10.5,10.2-19.5,17.8-27
			c7.5-7.5,16.4-13.3,26.5-17.4c10.1-4.1,21.1-6.1,33-6.1c4.4,0,8.6,0.4,12.6,1.1c3.9,0.7,7.4,1.5,10.4,2.2c3.5,1,6.7,2,9.6,3
			L3486.1,3785.4z"/>
		<path class="st7" d="M3583.1,3749.1h145.6v64.8H3662v27.4h65.6v61.5H3662v28.5h69.3v64.8h-148.2V3749.1z M3703.9,3966.5v-8.9
			h-74.1v-81.1h70.4v-8.9h-70.4v-80h74.1v-8.9h-83.7v187.8H3703.9z"/>
	</g>
	<g>
		<path class="st7" d="M4061.9,3866.9h38.4v40.9h21.5v-40.9h38.6v120.3h-38.6v-44.5h-21.5v44.5h-38.4V3866.9z"/>
		<path class="st7" d="M4208.7,3866.9h28.9l45.6,120.3h-37.9l-4-10.8h-36.4l-4,10.8h-37.9L4208.7,3866.9z M4231.3,3949.9l-8.1-21.1
			l-8.1,21.1H4231.3z"/>
		<path class="st7" d="M4283.2,3927.2c0-9.6,1.7-18.3,5-26.1c3.4-7.8,7.9-14.4,13.7-19.9c5.8-5.5,12.5-9.8,20.2-12.7
			c7.7-2.9,15.9-4.4,24.5-4.4c6.9,0,13,0.7,18.3,2c5.3,1.3,9.9,2.8,13.8,4.5c4.4,1.9,8.3,4,11.5,6.3l-18.9,33.4
			c-1.9-1.4-4-2.8-6.3-4.1c-2-1-4.5-1.9-7.3-2.8c-2.8-0.9-6-1.4-9.6-1.4c-3.7,0-7.2,0.7-10.3,2c-3.1,1.3-5.9,3.1-8.2,5.4
			c-2.3,2.3-4.2,5-5.5,8c-1.3,3.1-2,6.3-2,9.8c0,3.5,0.7,6.8,2.1,9.8c1.4,3.1,3.3,5.7,5.7,8c2.4,2.3,5.2,4.1,8.5,5.4
			c3.2,1.3,6.8,2,10.6,2c3.8,0,7.3-0.5,10.3-1.4c3-1,5.5-2,7.6-3.2c2.4-1.3,4.5-2.9,6.3-4.7l18.9,33.4c-3.2,2.6-7.1,5-11.5,7
			c-3.8,1.7-8.5,3.2-13.9,4.7c-5.4,1.4-11.6,2.2-18.6,2.2c-9.4,0-18-1.5-26-4.6c-7.9-3.1-14.8-7.4-20.6-12.9
			c-5.8-5.5-10.3-12.2-13.5-19.9S4283.2,3936.5,4283.2,3927.2z"/>
		<path class="st7" d="M4396.6,3866.9h39v27.8l22.7-27.8h47.1l-42.4,55l44.5,65.3h-46.3l-25.6-37.1v37.1h-39V3866.9z"/>
		<path class="st7" d="M4547.2,3866.9h41.5c7.7,0,14.8,1,21.4,3.1c6.6,2,12.2,5,17,9c4.8,4,8.6,8.9,11.3,14.7
			c2.7,5.8,4.1,12.5,4.1,20.1c0,6-0.8,11.1-2.5,15.3c-1.7,4.2-3.5,7.7-5.6,10.5c-2.4,3.1-5.1,5.8-8.1,7.9l22.5,39.7h-45.1l-18-30.5
			v30.5h-38.4V3866.9z M4585.6,3926.1h2c4.6,0,8.4-1,11.6-3.1c3.2-2,4.8-5.5,4.8-10.3c0-4.8-1.6-8.2-4.8-10.3
			c-3.2-2-7.1-3.1-11.6-3.1h-2V3926.1z"/>
		<path class="st7" d="M4652.3,3866.9h70.9v31.6h-32.5v13.3h31.9v29.9h-31.9v13.9h33.7v31.6h-72.1V3866.9z"/>
		<path class="st7" d="M4751.2,3898.5H4729v-31.6h84v31.6h-22.2v88.7h-39.7V3898.5z"/>
		<path class="st7" d="M4819.3,3866.9h41.5c7.7,0,14.8,1,21.4,3.1c6.6,2,12.2,5,17,9c4.8,4,8.6,8.9,11.3,14.7
			c2.7,5.8,4.1,12.5,4.1,20.1c0,6-0.8,11.1-2.5,15.3c-1.7,4.2-3.5,7.7-5.6,10.5c-2.4,3.1-5.1,5.8-8.1,7.9l22.5,39.7h-45.1l-18-30.5
			v30.5h-38.4V3866.9z M4857.7,3926.1h2c4.6,0,8.4-1,11.6-3.1c3.2-2,4.8-5.5,4.8-10.3c0-4.8-1.6-8.2-4.8-10.3
			c-3.2-2-7.1-3.1-11.6-3.1h-2V3926.1z"/>
		<path class="st7" d="M4924.5,3866.9h70.9v31.6h-32.5v13.3h31.9v29.9h-31.9v13.9h33.7v31.6h-72.1V3866.9z"/>
		<path class="st7" d="M5043.1,3866.9h28.9l45.6,120.3h-37.9l-4-10.8h-36.4l-4,10.8h-37.9L5043.1,3866.9z M5065.7,3949.9l-8.1-21.1
			l-8.1,21.1H5065.7z"/>
		<path class="st7" d="M5136.2,3898.5H5114v-31.6h84v31.6h-22.2v88.7h-39.7V3898.5z"/>
	</g>
	<g>
		<path class="st7" d="M770.7,3900.5h-33l13.3-33.5h73.4L777,3987.2h-40.6L770.7,3900.5z"/>
		<path class="st7" d="M797.3,3957.1h38.6v30.1h-38.6V3957.1z"/>
		<path class="st7" d="M881.9,3912h47.6v30.1h-47.6V3912z"/>
		<path class="st7" d="M981.8,3913.8l-16.2-18.9l26.3-28h28.9v120.3h-39V3913.8z"/>
		<path class="st7" d="M1073.4,3990.3c-6.1,0-11.9-1-17.3-3.1s-10.1-4.9-14.2-8.7c-4-3.7-7.2-8.1-9.6-13.3
			c-2.3-5.1-3.5-10.7-3.5-16.9c0-4.9,0.7-9.3,2.1-13c1.4-3.7,2.9-6.9,4.6-9.4c2-3,4.3-5.5,6.9-7.6c-1.3-1.4-2.5-3.1-3.4-5
			c-0.8-1.7-1.6-3.7-2.3-6.1c-0.7-2.4-1-5.2-1-8.3c0-4.9,1-9.5,3-13.8c2-4.3,4.7-8,8.1-11.1c3.4-3.1,7.4-5.6,12-7.4
			c4.6-1.8,9.4-2.7,14.6-2.7c5.2,0,10,0.9,14.6,2.7c4.6,1.8,8.6,4.3,12,7.4c3.4,3.1,6.1,6.8,8.1,11.1c2,4.3,3,8.9,3,13.8
			c0,3.1-0.4,5.9-1.1,8.3c-0.7,2.4-1.5,4.4-2.3,6.1c-1,1.9-2,3.6-3.2,5c2.4,2,4.6,4.6,6.7,7.6c1.7,2.5,3.2,5.7,4.7,9.4
			c1.4,3.7,2.2,8.1,2.2,13c0,6.1-1.2,11.8-3.5,16.9c-2.3,5.1-5.5,9.5-9.6,13.3c-4,3.7-8.7,6.6-14.2,8.7S1079.6,3990.3,1073.4,3990.3
			z M1063.7,3945.5c0,2.8,0.9,5.1,2.8,6.9c1.9,1.9,4.2,2.8,6.9,2.8c2.8,0,5.1-0.9,6.9-2.8c1.9-1.9,2.8-4.2,2.8-6.9
			c0-2.8-0.9-5.1-2.8-6.9c-1.9-1.9-4.2-2.8-6.9-2.8c-2.8,0-5.1,0.9-6.9,2.8C1064.6,3940.5,1063.7,3942.8,1063.7,3945.5z
			 M1067.3,3901.5c0,1.7,0.6,3.1,1.8,4.3c1.2,1.2,2.6,1.8,4.3,1.8c1.7,0,3.1-0.6,4.3-1.8c1.2-1.2,1.8-2.6,1.8-4.3
			c0-1.7-0.6-3.1-1.8-4.3c-1.2-1.2-2.6-1.8-4.3-1.8c-1.7,0-3.1,0.6-4.3,1.8C1067.9,3898.4,1067.3,3899.9,1067.3,3901.5z"/>
		<path class="st7" d="M1125.2,3957.1h38.6v30.1h-38.6V3957.1z"/>
		<path class="st7" d="M1211.6,3866.9h31.7l31.4,46.2l31.2-46.2h31.7v120.3h-38.4v-43.3l-24.5,36.1l-24.7-36.1v43.3h-38.4V3866.9z"
			/>
		<path class="st7" d="M1386,3866.9h28.9l45.6,120.3h-37.9l-4-10.8h-36.4l-4,10.8h-37.9L1386,3866.9z M1408.5,3949.9l-8.1-21.1
			l-8.1,21.1H1408.5z"/>
		<path class="st7" d="M1463.1,3866.9h41.5c7.7,0,14.8,1,21.4,3.1c6.6,2,12.2,5,17,9c4.8,4,8.6,8.9,11.3,14.7
			c2.7,5.8,4.1,12.5,4.1,20.1c0,6-0.8,11.1-2.5,15.3c-1.7,4.2-3.5,7.7-5.6,10.5c-2.4,3.1-5.1,5.8-8.1,7.9l22.5,39.7h-45.1l-18-30.5
			v30.5h-38.4V3866.9z M1501.6,3926.1h2c4.6,0,8.4-1,11.6-3.1c3.2-2,4.8-5.5,4.8-10.3c0-4.8-1.6-8.2-4.8-10.3
			c-3.2-2-7.1-3.1-11.6-3.1h-2V3926.1z"/>
		<path class="st7" d="M1565.6,3927.2c0-9.6,1.7-18.3,5-26.1c3.4-7.8,7.9-14.4,13.7-19.9c5.8-5.5,12.5-9.8,20.2-12.7
			c7.7-2.9,15.9-4.4,24.5-4.4c6.9,0,13,0.7,18.3,2c5.3,1.3,9.9,2.8,13.8,4.5c4.4,1.9,8.3,4,11.5,6.3l-18.9,33.4
			c-1.9-1.4-4-2.8-6.3-4.1c-2-1-4.5-1.9-7.3-2.8c-2.8-0.9-6-1.4-9.6-1.4c-3.7,0-7.2,0.7-10.3,2c-3.1,1.3-5.9,3.1-8.2,5.4
			c-2.3,2.3-4.2,5-5.5,8c-1.3,3.1-2,6.3-2,9.8c0,3.5,0.7,6.8,2.1,9.8c1.4,3.1,3.3,5.7,5.7,8c2.4,2.3,5.2,4.1,8.5,5.4
			c3.2,1.3,6.8,2,10.6,2c3.8,0,7.3-0.5,10.3-1.4c3-1,5.5-2,7.6-3.2c2.4-1.3,4.5-2.9,6.3-4.7l18.9,33.4c-3.2,2.6-7.1,5-11.5,7
			c-3.8,1.7-8.5,3.2-13.9,4.7c-5.4,1.4-11.6,2.2-18.6,2.2c-9.4,0-18-1.5-26-4.6c-7.9-3.1-14.8-7.4-20.6-12.9
			c-5.8-5.5-10.3-12.2-13.5-19.9S1565.6,3936.5,1565.6,3927.2z"/>
		<path class="st7" d="M1679,3866.9h38.4v40.9h21.5v-40.9h38.6v120.3h-38.6v-44.5h-21.5v44.5H1679V3866.9z"/>
		<path class="st7" d="M1845.6,3929.5c2.5-4.8,4.1-8.4,4.9-10.8c0.7-2.4,1.1-4.7,1.1-6.9c0-3.8-1.3-6.8-3.8-8.9
			c-2.5-2.1-6.2-3.2-11-3.2c-1,0-1.9,0-2.7,0.1c-0.8,0.1-1.6,0.2-2.3,0.3c-0.8,0.1-1.6,0.2-2.3,0.2v-33.4c1.7-0.4,3.2-0.7,4.5-0.9
			c1.3-0.2,2.6-0.4,3.9-0.5c1.3-0.1,2.6-0.2,4-0.3c1.4-0.1,3-0.1,4.8-0.1c5.8,0,11.5,0.6,17,1.9c5.6,1.3,10.6,3.3,15.1,6.2
			c4.4,2.9,8.1,6.7,10.8,11.5c2.8,4.8,4.1,10.7,4.1,17.7c0,3.2-0.4,6.5-1.1,9.6c-0.7,3.2-1.8,6.6-3.3,10.4
			c-1.5,3.7-3.4,7.9-5.8,12.5c-2.3,4.6-5.1,10-8.2,16.1l-2.3,4.5h22.7l-10.3,31.6h-70L1845.6,3929.5z"/>
		<path class="st7" d="M1995.3,3927.2c0,20.4-4.3,36.1-12.8,46.9c-8.5,10.8-20.4,16.2-35.7,16.2c-15.3,0-27.2-5.4-35.7-16.2
			c-8.5-10.8-12.8-26.4-12.8-46.9c0-20.4,4.3-36.1,12.8-46.9c8.5-10.8,20.4-16.2,35.7-16.2c15.3,0,27.2,5.4,35.7,16.2
			C1991,3891.1,1995.3,3906.7,1995.3,3927.2z M1958.3,3927.2c0-18.9-3.8-28.3-11.5-28.3c-7.7,0-11.5,9.4-11.5,28.3
			c0,18.9,3.8,28.3,11.5,28.3C1954.5,3955.5,1958.3,3946,1958.3,3927.2z"/>
		<path class="st7" d="M2008.8,3913.8l-16.2-18.9l26.3-28h28.9v120.3h-39V3913.8z"/>
		<path class="st7" d="M2100.5,3990.3c-6.1,0-11.9-1-17.3-3.1s-10.1-4.9-14.2-8.7c-4-3.7-7.2-8.1-9.6-13.3
			c-2.3-5.1-3.5-10.7-3.5-16.9c0-4.9,0.7-9.3,2.1-13c1.4-3.7,2.9-6.9,4.6-9.4c2-3,4.3-5.5,6.9-7.6c-1.3-1.4-2.5-3.1-3.4-5
			c-0.8-1.7-1.6-3.7-2.3-6.1c-0.7-2.4-1-5.2-1-8.3c0-4.9,1-9.5,3-13.8c2-4.3,4.7-8,8.1-11.1c3.4-3.1,7.4-5.6,12-7.4
			c4.6-1.8,9.4-2.7,14.6-2.7c5.2,0,10,0.9,14.6,2.7c4.6,1.8,8.6,4.3,12,7.4c3.4,3.1,6.1,6.8,8.1,11.1c2,4.3,3,8.9,3,13.8
			c0,3.1-0.4,5.9-1.1,8.3c-0.7,2.4-1.5,4.4-2.3,6.1c-1,1.9-2,3.6-3.2,5c2.4,2,4.6,4.6,6.7,7.6c1.7,2.5,3.2,5.7,4.7,9.4
			c1.4,3.7,2.2,8.1,2.2,13c0,6.1-1.2,11.8-3.5,16.9c-2.3,5.1-5.5,9.5-9.6,13.3c-4,3.7-8.7,6.6-14.2,8.7S2106.6,3990.3,2100.5,3990.3
			z M2090.7,3945.5c0,2.8,0.9,5.1,2.8,6.9c1.9,1.9,4.2,2.8,6.9,2.8c2.8,0,5.1-0.9,6.9-2.8c1.9-1.9,2.8-4.2,2.8-6.9
			c0-2.8-0.9-5.1-2.8-6.9c-1.9-1.9-4.2-2.8-6.9-2.8c-2.8,0-5.1,0.9-6.9,2.8C2091.6,3940.5,2090.7,3942.8,2090.7,3945.5z
			 M2094.3,3901.5c0,1.7,0.6,3.1,1.8,4.3c1.2,1.2,2.6,1.8,4.3,1.8c1.7,0,3.1-0.6,4.3-1.8c1.2-1.2,1.8-2.6,1.8-4.3
			c0-1.7-0.6-3.1-1.8-4.3c-1.2-1.2-2.6-1.8-4.3-1.8c-1.7,0-3.1,0.6-4.3,1.8C2094.9,3898.4,2094.3,3899.9,2094.3,3901.5z"/>
	</g>
</g>
</svg>
