<?xml version="1.0" encoding="utf-8"?>
<!-- Generator: Adobe Illustrator 19.2.0, SVG Export Plug-In . SVG Version: 6.00 Build 0)  -->
<svg version="1.1" xmlns="http://www.w3.org/2000/svg" xmlns:xlink="http://www.w3.org/1999/xlink" x="0px" y="0px"
	 viewBox="0 0 3941.2 2621.5" style="enable-background:new 0 0 3941.2 2621.5;" xml:space="preserve">
<style type="text/css">
	.st0{opacity:0.27;}
	.st1{fill:#FFDA74;}
	.st2{opacity:0.23;fill:#414042;}
</style>
<g id="shadow_floor">
	<polygon class="st0" points="1562.7,2008.4 1539.1,1981.6 1372.1,1995 1057,2069.9 625.2,2110.9 546.4,2128.2 188.8,2229 
		138.3,2247.9 180.9,2288.9 218.7,2296.8 295.9,2380.3 677.2,2394.5 696.1,2433.9 1562.7,2426 1914.1,2397.6 2101.6,2397.6 
		2268.6,2359.8 2356.9,2323.6 2390,2351.9 2432.5,2356.7 2457.7,2383.4 2435.6,2408.6 2648.4,2503.2 2906.8,2503.2 3132.1,2462.2 
		3182.5,2487.4 3336.9,2444.9 3390.5,2433.9 3399.9,2403.9 3360.6,2364.5 3347.9,2345.6 3277,2350.3 2998.2,2337.7 2738.2,2252.7 
		2536.5,2167.6 2415.2,2164.4 2341.1,2166 2158.3,2167.6 2141,2106.1 2202.5,2060.4 2278.1,2030.5 2314.3,1981.6 2207.2,1969 
		1874.7,2117.2 1684.6,2186.5 1101.1,2147.1 1219.2,2093.5 1368.9,2030.5 1411.5,2017.9 1504.4,2024.2 	"/>
	<path class="st0" d="M658.3,2340.9h7.9h698l572,20.5l278.9-20.5l115-18.9l102.4,34.7l127.6,36.2l152.8,9.5l368.7-22.1l89.8-18.1
		l83.3-12.8l20.7-13.2l-37.8-42.5l-37.8-45.7l-255.3,6.3l-124.5-25.2l-59.9,7.1l-237.9-95.3l-132.4,9.5l-48.8,1.6l-132.3,15.3
		l-12.6-62.6l151.3-83.5l-146.5-34.7c0,0-565.7,140.2-565.7,145c0,4.7-255.3-11-255.3-11l-91.4-11l-80.4,3.2l11-18.9l169.6-68.9
		l79.3-19.3l-50.3-13.9l-253.8,43.9l-239.5,25.2l-242.7,3.2l-165.4,26.8l-253.7,52l-146.5,42.5l-15.8,17.3l126.1,56.7l53.6,29.9
		l367.1,36.2L658.3,2340.9z"/>
</g>
<g id="camel_outline">
	<g>
		<path class="st1" d="M2801.4,1344.8h-54l-142.4,2.5l-70.6,92.4l-100.6,157.4l-97.4,622l64.4,17.2l34.2,34.6v35.9h-87l-38.9-28.2
			l-4.5,9.9l-74.9-56.2l-115.8-883.7l-75.4-91l-685.9,54.8l138.9,632.9l76.6,38.3l4.1,17.6c0,0-107.7,7.3-112.9,7.3
			c-5.2,0-60.1-44.5-60.1-44.5l-175.9-263.5l1.8,32.5l62.5,504.6l47.5,9.6l29,14.5v19l-115,8l-24.1-51L974.1,1746l-156.2-351.9
			l-16-32l-85.5-13.6l-39.5,115l-26.1,140.8L662,1818l5.8,36.9l-41.4-38.8v-503.7l100.8-99.1l-100.8-201.4v-85.3L1092,256.7
			l77.6-56.9l418.3,224.7l283.8-315.2l77.6-15.5l747.5,619.4l-11.3,45.1l51.2-14.1l35.8,22l6.9,82.2h108.7l47.1-269.7l283.2-469.4
			l55.9,6.1l15.8-21.6h34.9l49.4,136.5l293.9,59.4l182.3,133.8l-13.6,87.3l-184.6-66.6l-5.4,53l-166.8,25.2l-90.3-53.8l-93.8,95.7
			l-8,353.8L2801.4,1344.8"/>
	</g>
</g>
<g id="folding_shadows">
	<polygon class="st2" points="746.9,1353.4 727.3,1213.2 801.8,1362.1 	"/>
	<polygon class="st2" points="676.9,1323.6 694.1,1413.4 676.9,1463.5 	"/>
	<polygon class="st2" points="1272.5,1362.1 1400.1,1964.7 1309.4,1829.5 	"/>
	<polygon class="st2" points="2101.1,1252.5 2113.7,1348.5 2038.3,1257.5 1949.3,93.8 	"/>
	<polygon class="st2" points="817.9,1394.1 1239.9,2049.5 1224.9,2237.4 983.1,1772.9 	"/>
	<polygon class="st2" points="1303.6,1290.9 1259.6,796.2 1248.9,796.2 1282,1290.9 1261.9,1290.9 1092,256.7 1201,1290.9 
		1207.7,1421.3 1305.9,1316.1 	"/>
	<polygon class="st2" points="2336.3,2219.1 2322.6,2288.4 2309,2278.5 	"/>
	<polygon class="st2" points="3296.2,564.2 3223.8,428.5 3325,93.8 3259.1,390.5 	"/>
	<polygon class="st2" points="3389.9,468.5 3355.1,504.1 3259.1,390.5 	"/>
	<polygon class="st2" points="2888.1,848.3 2761.4,1344.8 2801.4,1344.8 	"/>
	<polygon class="st2" points="3374.5,230.3 3398.8,235.2 3480.2,522.4 	"/>
	<polygon class="st2" points="2735.1,744.6 2654.4,882.8 2710.9,864.5 	"/>
	<polygon class="st2" points="2608.1,1068.2 2569.3,1348.5 2534.4,1436.1 2534.4,1348.5 	"/>
	<polygon class="st2" points="1587.9,424.4 1259.6,796.2 1248.9,796.2 1572,416 	"/>
	<polygon class="st2" points="3274.3,115.4 2935.2,578.6 3259.1,113.7 	"/>
	<polygon class="st2" points="3668.3,289.6 3631.5,447.3 3647,497.2 	"/>
</g>
</svg>
